<svg width="72" height="20" viewBox="0 0 72 20" fill="none" xmlns="http://www.w3.org/2000/svg">
<path d="M20.2828 19.9575H18.538V16.8687H20.2828V17.2231H18.9559V18.1793H20.2313V18.5343H18.9559V19.5975H20.2828V19.9575ZM24.633 18.3793C24.633 18.5218 24.622 18.6637 24.5995 18.8043C24.5782 18.9341 24.5415 19.0609 24.4903 19.1825C24.4413 19.2972 24.3755 19.4043 24.2948 19.5006C24.2123 19.5981 24.1129 19.6808 24.001 19.745C23.8752 19.8164 23.7391 19.8693 23.5973 19.9018C23.4261 19.9408 23.2506 19.9595 23.0747 19.9575H22.4151V16.8687H23.2071C23.6867 16.8687 24.0441 16.9931 24.2794 17.2412C24.5147 17.49 24.633 17.8693 24.633 18.3793ZM24.1939 18.4093C24.1974 18.2226 24.1771 18.0362 24.1335 17.8543C24.1007 17.7199 24.037 17.5944 23.947 17.4875C23.8634 17.3946 23.7558 17.3251 23.6353 17.2862C23.4924 17.2417 23.343 17.2203 23.193 17.2231H22.8336V19.5925H23.1467C23.8448 19.5931 24.1945 19.1987 24.1939 18.4093ZM28.7794 18.8825C28.7815 19.0388 28.7574 19.1943 28.708 19.3431C28.6643 19.4743 28.5923 19.5943 28.4972 19.695C28.403 19.7937 28.2872 19.8706 28.1584 19.92C28.0113 19.9753 27.8545 20.0022 27.6968 19.9993C27.5315 20.0032 27.3668 19.9778 27.2108 19.9243C27.0859 19.8787 26.9742 19.8045 26.8849 19.7081C26.7993 19.6123 26.7367 19.4991 26.7017 19.3768C26.6616 19.2365 26.6421 19.0913 26.6438 18.9456V16.8687H27.0623V18.9125C27.061 19.0193 27.0726 19.1262 27.0964 19.2312C27.1157 19.315 27.1536 19.3937 27.2083 19.4606C27.2623 19.5231 27.331 19.5712 27.4095 19.5993C27.5059 19.6331 27.6088 19.6493 27.7116 19.6468C27.9334 19.6468 28.0973 19.5818 28.2034 19.4531C28.3082 19.3237 28.3622 19.1425 28.3622 18.9075V16.8687H28.78V18.8825H28.7794ZM32.9271 19.8412C32.6828 19.9443 32.4193 19.9962 32.1544 19.9956C31.7205 19.9956 31.3868 19.865 31.1528 19.6037C30.9188 19.3431 30.8025 18.9575 30.8044 18.4475C30.8013 18.2203 30.8338 17.9939 30.9008 17.7762C30.9569 17.5905 31.0502 17.4174 31.1753 17.2668C31.293 17.1287 31.4408 17.0181 31.6073 16.9437C31.7867 16.8662 31.9802 16.8281 32.1756 16.8306C32.3093 16.8293 32.4424 16.8425 32.5729 16.8681C32.695 16.8918 32.8127 16.9293 32.9258 16.9806V17.3931C32.7021 17.2659 32.447 17.2004 32.1878 17.2037C32.0524 17.2017 31.9183 17.2297 31.7957 17.2856C31.6787 17.3401 31.577 17.4214 31.4993 17.5225C31.4125 17.635 31.3489 17.7637 31.311 17.9C31.2646 18.0657 31.2424 18.237 31.2448 18.4087C31.2448 18.81 31.3258 19.1112 31.4871 19.3137C31.6478 19.5162 31.885 19.6175 32.1962 19.6181C32.3239 19.6187 32.4512 19.6032 32.5748 19.5718C32.695 19.5406 32.812 19.4975 32.9233 19.4425L32.9271 19.8412ZM37.44 19.9575H36.9835L36.7708 19.2837H35.4908L35.2729 19.9575H34.8377L35.8566 16.8687H36.43L37.4393 19.9575H37.44ZM36.6505 18.9087L36.1311 17.2562L35.6117 18.9081H36.6505V18.9087ZM41.1319 17.2281H40.2235V19.9575H39.8025V17.2281H38.8915V16.8687H41.1325V17.2281H41.1319ZM43.9058 17.2231H43.1987V16.8687H45.0353V17.2231H44.3282V19.5981H45.0353V19.9575H43.1987V19.5987H43.9058V17.2231ZM49.3296 18.395C49.3348 18.6387 49.302 18.8806 49.2325 19.1137C49.1779 19.295 49.0892 19.465 48.9709 19.6137C48.8676 19.7398 48.7347 19.8399 48.5833 19.9056C48.4276 19.9711 48.2595 20.0039 48.0899 20.002C47.9203 20 47.7531 19.9634 47.599 19.8943C47.4522 19.8225 47.3267 19.7154 47.2345 19.5831C47.1315 19.433 47.0586 19.2652 47.0198 19.0887C46.9701 18.8727 46.9464 18.6519 46.9491 18.4306C46.9447 18.1893 46.9772 17.9488 47.0455 17.7168C47.0995 17.5356 47.1883 17.3656 47.3072 17.2168C47.41 17.0906 47.5431 16.99 47.6929 16.9237C47.8408 16.86 47.9995 16.8275 48.1609 16.8281C48.3392 16.8241 48.5159 16.8614 48.6765 16.9368C48.8224 17.0093 48.9478 17.1162 49.0423 17.2481C49.1451 17.3968 49.2197 17.5637 49.2595 17.7406C49.309 17.955 49.3328 18.175 49.3303 18.395H49.3296ZM48.8944 18.4256C48.8954 18.2589 48.8817 18.0925 48.8533 17.9281C48.8305 17.7928 48.7856 17.662 48.7202 17.5406C48.6651 17.4382 48.5841 17.3511 48.4849 17.2875C48.38 17.2258 48.259 17.1948 48.1365 17.1981C48.0158 17.1947 47.8971 17.2281 47.797 17.2937C47.6995 17.3607 47.6195 17.4492 47.5637 17.5518C47.4981 17.6728 47.4522 17.8029 47.4274 17.9375C47.3972 18.0918 47.3824 18.2487 47.3837 18.4062C47.3837 18.5737 47.3978 18.7412 47.4274 18.9062C47.4512 19.0412 47.4962 19.1725 47.5605 19.2937C47.6158 19.3962 47.6961 19.4825 47.7945 19.5456C47.8979 19.6074 48.0177 19.6384 48.139 19.635C48.2605 19.6381 48.3799 19.6047 48.481 19.5393C48.5788 19.4731 48.6598 19.3843 48.717 19.2812C48.7819 19.1606 48.8282 19.0312 48.8539 18.8975C48.8839 18.7411 48.8979 18.5822 48.8957 18.4231L48.8944 18.4256ZM53.44 19.9575H52.8955L52 18.0312L51.7429 17.4125V19.9575H51.3508V16.8687H51.8888L52.7413 18.6925L53.0485 19.4V16.8687H53.4407L53.44 19.9575ZM25.1556 6.05435L26.4362 9.11497H23.8648L23.3736 10.28H26.9852L28.4792 13.7794H30.0118L25.9097 4.26685L25.1556 6.05435ZM10.9221 2.66248H6.36298V13.7794H7.81712V3.82748H10.6071C13.3573 3.82748 14.7323 5.18998 14.7323 7.91622C14.7323 11.0475 13.3566 12.6125 10.6071 12.6125H8.99548V13.7781H10.9202C14.4302 13.7781 16.1852 11.8243 16.1852 7.91622C16.1852 4.41435 14.4302 2.6631 10.9208 2.66248H10.9221ZM34.1164 2.66248V13.7794H35.4703V4.90123L42.2415 13.7794H43.6725V13.2662L35.5474 2.66248H34.117H34.1164ZM42.3193 9.5781L43.6725 11.3175V2.66248H42.3186V9.5781H42.3193ZM53.3507 2.66248H51.975V13.7794H53.3507V2.66248ZM56.5135 2.66248V4.02185H60.6786V13.7794H62.0537V4.02185H66.2181V2.66248H56.5135Z" fill="#40404B"/>
<path d="M0 16.4419V0H2.97386V1.30125H1.31529V15.14H2.97386V16.4406L1.38471 16.4419H0Z" fill="url(#paint0_linear_1_317)"/>
<path d="M69.0255 15.14H70.6847L70.6841 1.3025L69.0255 1.30125V0.00125H70.7272L72 0V16.4406H69.0255V15.14Z" fill="url(#paint1_linear_1_317)"/>
<path d="M18.837 13.7794H20.3458L25.218 2.66248H23.607L18.837 13.7794Z" fill="url(#paint2_linear_1_317)"/>
<path d="M48.4682 12.4187H47.0925V13.7793H48.4682V12.4187Z" fill="url(#paint3_linear_1_317)"/>
<defs>
<linearGradient id="paint0_linear_1_317" x1="1.48693" y1="17.9906" x2="1.48693" y2="0.329999" gradientUnits="userSpaceOnUse">
<stop stop-color="#4657A3"/>
<stop offset="1" stop-color="#68C0AE"/>
</linearGradient>
<linearGradient id="paint1_linear_1_317" x1="4885.06" y1="6865.81" x2="4885.06" y2="125.936" gradientUnits="userSpaceOnUse">
<stop stop-color="#4657A3"/>
<stop offset="1" stop-color="#68C0AE"/>
</linearGradient>
<linearGradient id="paint2_linear_1_317" x1="3246.5" y1="4645.18" x2="3246.5" y2="87.8177" gradientUnits="userSpaceOnUse">
<stop stop-color="#4657A3"/>
<stop offset="1" stop-color="#68C0AE"/>
</linearGradient>
<linearGradient id="paint3_linear_1_317" x1="1556" y1="580.388" x2="1556" y2="22.8369" gradientUnits="userSpaceOnUse">
<stop stop-color="#4657A3"/>
<stop offset="1" stop-color="#68C0AE"/>
</linearGradient>
</defs>
</svg>
