<svg width="19" height="20" viewBox="0 0 19 20" fill="none" xmlns="http://www.w3.org/2000/svg">
<mask id="mask0_1_340" style="mask-type:luminance" maskUnits="userSpaceOnUse" x="0" y="0" width="19" height="20">
<path d="M18.151 0H0V20H18.151V0Z" fill="white"/>
</mask>
<g mask="url(#mask0_1_340)">
<path fill-rule="evenodd" clip-rule="evenodd" d="M11.076 3.51217C11.076 3.51217 11.0417 3.52839 11.0277 3.53577C11.0055 3.5466 10.9804 3.54974 10.9562 3.54461C10.9088 3.52128 10.8569 3.50871 10.8041 3.50775C10.7186 3.50775 10.5959 3.56673 10.5974 3.70275C10.595 3.76497 10.6026 3.82719 10.6198 3.88706C10.6246 3.91397 10.6279 3.92613 10.6279 3.92613C10.6279 3.92613 10.3616 3.97663 10.3752 4.2166C10.3855 4.39353 10.4334 4.40091 10.4625 4.4116C10.4625 4.4116 10.5086 4.40791 10.5189 4.42044C10.5335 4.45111 10.5405 4.48491 10.5392 4.51886C10.5358 4.54393 10.5307 4.57969 10.5001 4.58337C10.4368 4.5885 10.3738 4.57069 10.3225 4.53324C10.2337 4.47758 10.1722 4.40607 10.167 4.32903C10.1619 4.25199 10.167 4.22876 10.184 4.19854C10.2009 4.16831 10.2249 4.15025 10.2437 4.11449C10.2517 4.10174 10.2565 4.08725 10.2577 4.07221C10.259 4.05721 10.2565 4.0421 10.2507 4.02824C10.2439 4.01751 10.2404 4.00512 10.2404 3.99248C10.2404 3.97984 10.2439 3.96745 10.2507 3.95672C10.268 3.93719 10.3465 3.87452 10.3612 3.80928C10.3791 3.75329 10.3855 3.6942 10.38 3.63566C10.3711 3.56931 10.2997 3.29395 10.0878 3.29395C9.87594 3.29395 9.80078 3.49964 9.79783 3.61244C9.79488 3.72523 9.81478 3.75583 9.82362 3.83619C9.83246 3.91655 9.78677 3.94898 9.78677 4.0028C9.78677 4.05662 9.80556 4.13698 9.80188 4.19596C9.7982 4.25494 9.80888 4.3928 9.6346 4.3928C9.46033 4.3928 9.34426 4.32682 9.33984 4.20849C9.33542 4.09016 9.37042 4.085 9.40285 4.08685C9.43527 4.08869 9.48317 4.13514 9.50196 4.18527C9.52075 4.2354 9.53881 4.23466 9.55833 4.23356C9.57786 4.23245 9.63202 4.20849 9.66592 4.08316C9.69982 3.95783 9.71714 3.90438 9.71235 3.82181C9.70756 3.73924 9.61655 3.43366 9.55023 3.43366C9.48391 3.43366 9.49533 3.54424 9.41353 3.54424C9.40082 3.54421 9.38826 3.54159 9.37658 3.53658C9.3649 3.53156 9.35436 3.52423 9.34559 3.51505C9.33682 3.50587 9.32997 3.495 9.32551 3.48309C9.32105 3.47118 9.31903 3.4585 9.31958 3.44582C9.32289 3.31349 9.51596 3.24161 9.51596 3.18079C9.51596 3.11997 9.47912 3.03334 9.40322 3.02708C9.32732 3.02081 9.3111 3.04293 9.3111 3.04293C9.29146 3.00612 9.26405 2.97404 9.23078 2.94893C9.17957 2.91207 9.12651 2.8682 9.08045 2.8682H9.07014C9.02408 2.8682 8.97102 2.91317 8.91981 2.94893C8.88661 2.97372 8.8592 3.00541 8.83949 3.04182C8.83949 3.04182 8.82254 3.02044 8.74737 3.02597C8.67221 3.0315 8.63463 3.11886 8.63463 3.17968C8.63463 3.2405 8.82769 3.31238 8.83101 3.44472C8.83149 3.4574 8.82943 3.47004 8.82493 3.48195C8.82044 3.49382 8.81362 3.50465 8.80485 3.51383C8.79608 3.52301 8.78558 3.53035 8.77394 3.53536C8.76226 3.54041 8.74973 3.54306 8.73706 3.54314C8.65489 3.54314 8.66521 3.43255 8.60036 3.43255C8.53551 3.43255 8.44303 3.73666 8.43824 3.81886C8.43345 3.90106 8.45187 3.95525 8.4843 4.08021C8.51672 4.20517 8.5731 4.22987 8.59189 4.23061C8.61068 4.23134 8.62873 4.23061 8.64826 4.18232C8.66779 4.13403 8.71495 4.08574 8.74737 4.0839C8.7798 4.08205 8.81406 4.08758 8.81038 4.20554C8.80669 4.3235 8.691 4.38985 8.51562 4.38985C8.34023 4.38985 8.35166 4.25199 8.34797 4.19301C8.34429 4.13403 8.36345 4.05367 8.36345 3.99985C8.36345 3.94603 8.31739 3.91397 8.3266 3.83324C8.33581 3.75251 8.35387 3.72044 8.35239 3.60949C8.35092 3.49853 8.27539 3.29469 8.06353 3.29469C7.85167 3.29469 7.78019 3.57005 7.77135 3.6364C7.76578 3.69493 7.77216 3.75402 7.79014 3.81002C7.80561 3.87452 7.88409 3.93719 7.90067 3.95746C7.90708 3.96837 7.91033 3.98083 7.90999 3.99348C7.90966 4.00612 7.90579 4.01843 7.89883 4.02897C7.89294 4.04283 7.8905 4.05795 7.89172 4.07295C7.89293 4.08799 7.89776 4.10248 7.90583 4.11523C7.92462 4.15209 7.94857 4.16868 7.96552 4.19927C7.98247 4.22987 7.98763 4.25272 7.98247 4.32976C7.97731 4.40681 7.91615 4.47721 7.82698 4.53398C7.77569 4.57147 7.71265 4.58927 7.64939 4.58411C7.61881 4.58042 7.61254 4.54467 7.60996 4.5196C7.6089 4.48562 7.61597 4.45189 7.6306 4.42118C7.64091 4.40865 7.68697 4.41233 7.68697 4.41233C7.71608 4.40312 7.76398 4.39427 7.77429 4.21734C7.78793 3.97737 7.52154 3.92687 7.52154 3.92687C7.52154 3.92687 7.52485 3.9147 7.53001 3.88779C7.54696 3.82789 7.55444 3.76571 7.55212 3.70349C7.55212 3.56747 7.4309 3.50664 7.34542 3.50849C7.29254 3.50926 7.24056 3.52183 7.19325 3.54535C7.16897 3.55055 7.14365 3.54745 7.1214 3.5365C7.10777 3.52913 7.07387 3.51291 7.07387 3.51291C6.90991 3.49153 6.90954 3.56341 6.90475 3.58295C6.90431 3.59456 6.90799 3.60595 6.91514 3.61513C6.92229 3.62431 6.93242 3.63065 6.94381 3.63308C6.98691 3.64071 7.028 3.657 7.06466 3.681C7.09376 3.70459 7.08345 3.96299 7.08345 4.05293C7.08345 4.14288 7.09303 4.36183 7.09597 4.38174C7.13227 4.46044 7.18536 4.53025 7.25146 4.58632C7.34652 4.6711 7.53591 4.74593 7.5558 4.76621C7.5757 4.78648 7.57496 4.8602 7.57496 4.8602L7.57754 5.52371L7.51196 5.56057L7.52964 5.5661H7.51417C7.35647 5.65236 7.18256 5.85325 6.9287 5.97158C6.76124 6.05673 6.58829 6.1306 6.41102 6.19275C6.26353 6.24992 6.11055 6.29169 5.95451 6.31734C5.71097 6.36084 5.58606 6.39475 5.46116 6.39107C5.33625 6.38738 5.27693 6.35752 5.28209 6.31734C5.28725 6.27716 5.42947 6.20676 5.53227 6.11792C5.63507 6.02908 5.74486 5.88754 5.76071 5.84183C5.79755 5.73345 5.70065 5.75373 5.67375 5.84183C5.66012 5.88717 5.65128 5.89528 5.6078 5.89528C5.56432 5.89528 5.5249 5.79538 5.45416 5.78948C5.38341 5.78359 5.20656 5.80644 5.21319 5.85436C5.21982 5.90228 5.36683 5.92145 5.36057 5.95757C5.35431 5.9937 5.25003 6.10907 5.1815 6.09728C5.11297 6.08548 5.07834 5.94983 5.07392 5.87611C5.06949 5.80239 5.1815 5.60665 5.29167 5.57569C5.40184 5.54472 5.43168 5.53219 5.45931 5.55394C5.48695 5.57569 5.48437 5.65973 5.59454 5.67632C5.59454 5.67632 5.59454 5.67374 5.63875 5.69549C5.68296 5.71724 5.72092 5.75115 5.72534 5.73419C5.72976 5.71724 5.71318 5.61255 5.65386 5.58674C5.60039 5.56267 5.55452 5.52441 5.52121 5.47616C5.49358 5.43524 5.40442 5.2325 5.32741 5.19454C5.2504 5.15657 5.16787 5.15768 5.01423 5.11787C4.86058 5.07805 4.65167 5.00028 4.51608 4.9977C4.38049 4.99512 4.15758 5.14514 4.05109 5.17906C3.94461 5.21297 3.86024 5.22366 3.73975 5.26679C3.61927 5.30991 3.62922 5.45109 3.46784 5.53624C3.35251 5.59559 3.40336 5.60997 3.35325 5.63467C3.30314 5.65936 3.18339 5.66342 3.16902 5.75483C3.15465 5.84625 3.12776 5.95684 3.13697 6.02872C3.14629 6.09403 3.14776 6.16024 3.14139 6.22592C3.13476 6.26905 3.0957 6.26684 3.10712 6.38001C3.11854 6.49317 3.16202 6.61998 3.30682 6.69702C3.45162 6.77406 3.5979 6.79802 3.67527 6.9016C3.75265 7.00518 3.82855 7.09918 3.8665 7.19981C3.90445 7.30044 3.91845 7.32919 3.91624 7.51203C3.91403 7.69486 3.90003 8.06716 3.87719 8.22346C3.85434 8.37975 3.80828 8.71888 3.77144 8.92788C3.73459 9.13689 3.61116 9.5936 3.56511 9.76685C3.51905 9.9401 3.51021 10.2719 3.47336 10.399C3.43652 10.5262 3.35804 10.6788 3.38678 10.7356C3.3632 10.8045 3.48589 10.8557 3.64469 10.9225C3.73717 10.9862 4.0043 11.1635 4.08426 11.2863C4.21911 11.4934 4.2659 11.4116 4.38454 11.5288C4.42997 11.5871 4.45425 11.6591 4.45344 11.733C4.46144 11.8631 4.48296 11.9919 4.51755 12.1175C4.6163 12.4548 4.65683 12.5455 4.71394 12.5082C4.77879 12.4747 4.66014 12.2134 4.6303 12.161C4.60045 12.1087 4.58093 12.1031 4.57651 12.0069C4.57208 11.9107 4.61335 11.8558 4.62551 11.764C4.63767 11.6722 4.5544 11.5886 4.5544 11.5406C4.5544 11.4927 4.60045 11.5285 4.6233 11.5454C4.64614 11.5624 4.81379 11.6848 4.90553 11.7161C4.99728 11.7474 5.0216 11.7751 5.03339 11.8134C5.04518 11.8517 5.0017 11.9505 5.06618 12.1378C5.13066 12.325 5.07428 12.4367 5.10302 12.5433C5.10302 12.6491 4.95012 12.7585 4.95122 12.7869C4.8989 12.7869 4.79315 12.6516 4.68999 12.659C4.58682 12.6664 4.5754 12.7327 4.58682 12.7696C4.59824 12.8065 4.72757 12.8002 4.72094 12.8363C4.71431 12.8724 4.64725 12.9141 4.67083 12.955C4.69441 12.9959 4.78136 12.9425 4.81453 12.9473C4.84769 12.9521 4.80826 13.0343 4.77363 13.0803C4.73899 13.1264 4.70767 13.174 4.75373 13.1839C4.79979 13.1939 4.84179 13.1342 4.87864 13.1471C4.91548 13.16 4.90111 13.1953 4.86206 13.2746C4.823 13.3539 4.71467 13.4644 4.69625 13.6277C4.64246 13.8622 4.88527 14.2794 4.90959 14.2312C4.85948 14.024 4.86095 13.9363 4.88969 13.6782C4.9409 13.2186 5.15424 12.6553 5.37236 12.3626C5.40699 12.2491 5.46779 12.0475 5.46079 11.9502C5.44863 11.785 5.27362 11.5867 5.17745 11.5653C5.03302 11.5329 4.88269 11.5285 4.81821 11.5089C4.75373 11.4894 4.5544 11.4393 4.56029 11.3958C4.56619 11.3523 5.32115 11.1127 5.35504 11.0205C5.38894 10.9284 5.33294 10.5852 5.27914 10.3393C5.25151 10.0813 5.22461 9.72299 5.18334 9.29392C5.14208 8.86485 5.12402 8.14236 5.10671 7.9223C5.08939 7.70223 5.01238 7.12166 5.09676 7.059C5.21061 6.93772 5.77839 7.16479 5.87051 7.20866C5.88598 7.2164 5.67486 7.45194 5.6896 7.40697C5.7047 7.43572 12.5925 7.45526 12.5896 7.41545C12.5896 7.41545 12.5428 7.30228 12.4496 7.27058C12.3564 7.23888 12.3803 7.2492 12.4389 7.23372C12.4975 7.21824 13.1117 6.96353 13.1098 7.08959C13.1581 7.10766 13.1467 7.16332 13.1445 7.22303C13.1423 7.28275 13.1338 7.94036 13.1032 8.2183C13.0726 8.49623 13.0616 9.12325 13.0343 9.40082C13.007 9.67838 12.9757 10.2118 12.9654 10.4141C12.9551 10.6165 12.8917 10.796 13.1168 11.0039C13.342 11.2118 13.6717 11.2841 13.661 11.346C13.6504 11.4079 13.4507 11.4798 13.2992 11.5016C13.028 11.4098 12.685 11.6715 12.7587 12.1518C12.7506 12.1717 12.7392 12.5418 12.9352 12.9023C13.0336 12.983 13.2182 13.2341 13.3036 13.6082C13.3427 13.7778 13.3232 13.972 13.3224 14.2087C13.3416 14.2164 13.472 13.8482 13.4698 13.6852C13.5184 13.3505 13.171 13.1533 13.15 13.1095C13.1809 13.0483 13.3272 13.1924 13.3479 13.153C13.3685 13.1135 13.2222 12.9473 13.2447 12.9204C13.2672 12.8935 13.3722 12.9723 13.398 12.9473C13.4238 12.9222 13.3361 12.8463 13.3736 12.8031C13.4112 12.76 13.5288 12.7707 13.496 12.6948C13.4632 12.6188 13.4433 12.6155 13.4083 12.6155C13.2241 12.6155 13.0789 12.9609 13.0358 12.9196C12.9927 12.8783 12.9952 12.8665 12.9916 12.7781C12.9879 12.6896 12.9746 12.2071 12.9849 12.1691C12.9952 12.1312 13.1511 12.0427 13.1622 12.015C13.1603 11.9089 13.0855 11.7504 13.1069 11.7279C13.1283 11.7054 13.3648 11.6855 13.4385 11.6239C13.5122 11.5624 13.5918 11.4835 13.619 11.4835C13.6463 11.4835 13.6607 11.4673 13.6607 11.496C13.6607 11.5248 13.566 11.6564 13.5778 11.7017C13.5896 11.7471 13.7019 11.8709 13.6931 11.9339C13.6843 11.997 13.6106 12.0604 13.5608 12.1846C13.4927 12.3121 13.4669 12.4025 13.521 12.4544C13.517 12.4544 13.6146 12.5473 13.6795 12.2134C13.7289 12.0989 13.7546 11.9757 13.755 11.851C13.762 11.6999 13.7498 11.5845 13.7653 11.5285C13.7808 11.4724 13.8276 11.5056 13.8489 11.5064C13.8703 11.5071 13.8825 11.4547 13.9134 11.4437C13.9134 11.4437 14.0608 11.3924 14.1131 11.2793C14.1438 11.2252 14.1853 11.178 14.2351 11.1407C14.3368 11.0563 14.4849 10.9099 14.5707 10.865C14.6566 10.82 14.8117 10.7964 14.8136 10.73C14.8154 10.6637 14.7634 10.3854 14.7343 10.1834C14.7052 9.98139 14.6566 9.7886 14.6238 9.62272C14.591 9.45684 14.4948 9.14868 14.4602 8.94521C14.4256 8.74173 14.3928 8.63262 14.3696 8.36758C14.3464 8.10255 14.3058 7.67717 14.2992 7.50576C14.2926 7.33435 14.2889 7.30929 14.3147 7.23372C14.3405 7.15816 14.4403 6.97016 14.5556 6.87285C14.6697 6.77605 14.7994 6.69927 14.9392 6.64578C15.0733 6.59528 15.0906 6.56653 15.1009 6.44562C15.1113 6.32471 15.1061 6.23293 15.0822 6.17874C15.0582 6.12456 15.0766 5.94467 15.0803 5.89233C15.084 5.83998 15.0578 5.69954 14.972 5.65088C14.8861 5.60223 14.8773 5.63098 14.8497 5.61402C14.8047 5.58037 14.7633 5.54233 14.7259 5.50049C14.648 5.40671 14.5634 5.31876 14.4727 5.2373C14.3902 5.17242 14.3254 5.1938 14.2458 5.18127C14.1662 5.16873 14.01 5.08211 13.9532 5.0552C13.8645 5.01793 13.7702 4.99589 13.6743 4.98996C13.5963 4.98701 13.5184 4.99685 13.4437 5.01908C13.3493 5.04599 13.2148 5.08764 13.1187 5.10902C13.0225 5.1304 12.9485 5.13445 12.8829 5.17758C12.8173 5.22071 12.7418 5.37774 12.716 5.42455C12.6902 5.47137 12.723 5.48427 12.6246 5.52187C12.5262 5.55947 12.5402 5.62176 12.5203 5.64462C12.5004 5.66747 12.4746 5.69327 12.5203 5.70065C12.5494 5.70297 12.5786 5.69899 12.606 5.689C12.6334 5.67901 12.6583 5.66323 12.6791 5.64277C12.7204 5.59965 12.7686 5.5274 12.846 5.52555C12.8795 5.52522 12.9126 5.53289 12.9426 5.54797C12.9725 5.56304 12.9984 5.58505 13.0181 5.61218C13.0645 5.66452 13.1146 5.69696 13.1264 5.77621C13.1382 5.85547 13.1559 5.8868 13.1404 5.92771C13.1249 5.96863 13.1161 6.04678 13.0833 6.05562C13.0505 6.06447 12.8545 5.97822 12.8622 5.94725C12.87 5.91629 13.0188 5.89712 13.0137 5.84478C13.0085 5.79243 12.9481 5.76884 12.8154 5.77105C12.6828 5.77326 12.6659 5.85215 12.6213 5.8739C12.5767 5.89565 12.5369 5.81971 12.5078 5.78211C12.4787 5.74451 12.4857 5.71871 12.4636 5.73124C12.4415 5.74378 12.4503 5.82229 12.5185 5.90928C12.5866 5.99628 12.9112 6.22961 12.9094 6.26647C12.9076 6.30333 12.8217 6.33135 12.6651 6.32951C12.5085 6.32766 12.3435 6.33688 12.1401 6.27385C11.9367 6.21081 11.6946 6.14188 11.5896 6.10797C11.4846 6.07406 11.0609 5.8868 10.996 5.85547C10.8551 5.77883 10.7228 5.68727 10.6014 5.58232L10.6209 5.5779H10.5974C10.5852 5.56795 10.5742 5.55836 10.5646 5.54988L10.5716 5.54767L10.5745 4.85762C10.5745 4.85762 10.5745 4.7839 10.5937 4.76363C10.6128 4.74335 10.803 4.66852 10.898 4.58374C10.9642 4.52782 11.0173 4.45797 11.0535 4.37916C11.0568 4.35925 11.066 4.13993 11.066 4.05035C11.066 3.96078 11.0557 3.70201 11.0848 3.67842C11.1214 3.65439 11.1625 3.63806 11.2057 3.6305C11.2171 3.62814 11.2273 3.6218 11.2344 3.61262C11.2416 3.60344 11.2452 3.59202 11.2447 3.58037C11.2399 3.56083 11.2399 3.48895 11.076 3.51033V3.51217ZM10.3291 4.79938C10.2164 4.79938 9.90394 4.62023 9.0764 4.62908C8.24775 4.62023 7.9342 4.79938 7.82367 4.79938C7.71313 4.79938 7.68365 4.72934 7.69176 4.70907C7.69987 4.6888 7.72861 4.71681 7.76914 4.72234C7.80967 4.72787 7.88336 4.67221 7.97399 4.58079C8.06463 4.48938 8.08453 4.35962 8.08453 4.26599C8.08453 4.17237 8.03995 4.14251 8.02963 4.13514C8.01931 4.12776 8.02779 4.05625 8.04695 4.05809C8.06611 4.05994 8.09448 4.11744 8.11327 4.14398C8.13206 4.17052 8.16301 4.23356 8.15269 4.35004C8.14238 4.46652 8.06721 4.58448 8.05542 4.60807C8.04363 4.63166 8.06205 4.64714 8.08453 4.65267C8.10701 4.6582 8.15085 4.60991 8.16117 4.58816C8.17148 4.56642 8.17333 4.49712 8.21644 4.49712C8.25954 4.49712 8.38076 4.62761 8.40287 4.62761C8.41223 4.6279 8.42148 4.62536 8.42936 4.62027C8.43725 4.61522 8.44344 4.60789 8.44709 4.59922C8.45177 4.592 8.45427 4.58352 8.45427 4.57489C8.45427 4.56627 8.45177 4.55779 8.44709 4.55057C8.4353 4.53103 8.33102 4.48827 8.28239 4.4245C8.23375 4.36073 8.23891 4.23392 8.23559 4.2177C8.23228 4.20149 8.17554 4.2107 8.17554 4.18748C8.17554 4.16426 8.19949 4.15504 8.21238 4.14177C8.22528 4.1285 8.23044 4.01202 8.25291 4.01386C8.27539 4.0157 8.28165 4.09238 8.28165 4.20886C8.28165 4.32534 8.38592 4.48274 8.59778 4.47537C8.80964 4.468 8.92055 4.24277 8.92386 4.13735C8.92243 4.09164 8.90514 4.04788 8.87497 4.01357C8.84475 3.97925 8.80352 3.95654 8.75843 3.94935C8.6969 3.94935 8.63021 4.04409 8.61473 4.0533C8.59926 4.06252 8.58415 4.04409 8.56536 4.02971C8.54657 4.01533 8.57052 3.73482 8.57052 3.70754C8.57052 3.68026 8.57052 3.65778 8.60957 3.6504C8.64863 3.64303 8.74995 3.74883 8.77869 3.74883C8.80743 3.74883 8.83691 3.70422 8.85238 3.63087C8.86786 3.55751 8.96292 3.46425 8.99129 3.44656C9.01568 3.43325 9.04306 3.42629 9.07087 3.42629C9.09865 3.42629 9.12603 3.43325 9.15046 3.44656C9.1803 3.46352 9.27242 3.55714 9.28936 3.63087C9.30631 3.70459 9.33579 3.74883 9.36306 3.74883C9.39032 3.74883 9.49459 3.6434 9.53217 3.6504C9.56976 3.65741 9.5716 3.681 9.5716 3.70754C9.5716 3.73408 9.59555 4.0157 9.57676 4.02971C9.55797 4.04372 9.54249 4.06215 9.52738 4.0533C9.51228 4.04446 9.44522 3.94935 9.38369 3.94935C9.33852 3.95658 9.29732 3.97932 9.26707 4.0136C9.23682 4.04788 9.21943 4.09164 9.21789 4.13735C9.2212 4.24277 9.33247 4.4691 9.54433 4.47537C9.75619 4.48163 9.86046 4.32534 9.86046 4.20886C9.86046 4.09238 9.8671 4.0157 9.88957 4.01386C9.91205 4.01202 9.91573 4.1285 9.92973 4.14177C9.94373 4.15504 9.96658 4.16426 9.96658 4.18748C9.96658 4.2107 9.9102 4.20185 9.90689 4.2177C9.90357 4.23356 9.90689 4.3611 9.85936 4.4245C9.81183 4.4879 9.70682 4.53103 9.69503 4.55057C9.69031 4.55779 9.68781 4.56627 9.68781 4.57489C9.68781 4.58352 9.69031 4.592 9.69503 4.59922C9.69864 4.60789 9.70483 4.61522 9.71271 4.62027C9.7206 4.62536 9.72985 4.6279 9.73924 4.62761C9.76135 4.62761 9.8811 4.49712 9.92531 4.49712C9.96953 4.49712 9.97505 4.56678 9.98537 4.58816C9.99569 4.60954 10.0399 4.6582 10.062 4.65267C10.0841 4.64714 10.1033 4.63313 10.0911 4.60807C10.079 4.583 10.0042 4.46468 9.99384 4.35004C9.98353 4.2354 10.0145 4.17089 10.0333 4.14398C10.0521 4.11707 10.0808 4.05994 10.0996 4.05809C10.1184 4.05625 10.1272 4.12813 10.1169 4.13514C10.1066 4.14214 10.062 4.172 10.062 4.26599C10.062 4.35999 10.0808 4.48974 10.1725 4.58079C10.2643 4.67184 10.3365 4.72824 10.3774 4.72234C10.4183 4.71644 10.4467 4.68917 10.4548 4.70907C10.4629 4.72898 10.4356 4.79938 10.3229 4.79938H10.3291ZM2.65282 14.1799C2.49181 13.8659 2.53565 13.3933 2.50028 13.4335C2.36984 13.5809 2.29246 13.4383 2.23277 13.3177C2.20551 13.2635 2.17935 13.2071 2.15392 13.1456C2.30131 12.5263 2.60013 12.0438 2.87868 11.4256C3.04706 11.0515 2.79099 10.5575 2.9089 10.1882C2.3341 10.5078 1.9708 10.8487 1.77 11.2019C1.77344 11.1527 1.77859 11.1081 1.78547 11.0681C3.05812 9.14536 1.19153 9.6946 2.26557 8.01298C0.593165 8.95368 0.973407 9.86159 1.28954 10.6394C1.33968 10.7777 1.38067 10.9192 1.41223 11.0629C1.36754 11.0218 1.33114 10.9725 1.30501 10.9177C1.15174 10.5612 0.626326 10.4687 0.629273 10.9704C1.20074 10.7315 1.46934 11.4057 1.56993 11.9502C1.57313 12.1433 1.60721 12.3347 1.67088 12.5171C1.86027 13.3808 2.13698 14.031 2.17087 13.8924C2.20219 13.9293 2.14434 13.9293 2.12555 13.9215C1.85216 13.8552 1.7781 13.3974 1.73168 13.307C1.49403 12.8577 1.68673 12.1643 0.914086 11.8731C0.751599 11.8259 0.444311 11.2985 0.465681 11.2162C0.46347 11.2631 0.275192 11.6549 0.15913 11.886C-0.172476 12.7423 -0.0744683 13.2388 1.26264 13.7166C1.62086 13.9481 2.00401 14.1385 2.40484 14.2842C2.35363 14.2842 1.29949 14.4851 1.53272 14.1106C1.54451 13.8662 0.847028 13.7641 0.887926 13.7516C0.568848 14.9621 2.26778 14.2809 2.92621 14.8047C2.92621 14.8047 2.74825 14.3443 2.65024 14.1781L2.65282 14.1799ZM5.51569 17.9306C5.41775 17.8845 5.32623 17.8259 5.2434 17.7562C5.1304 17.6602 5.02966 17.5507 4.94348 17.43C4.94348 17.43 4.65425 16.9729 4.56582 16.5545C4.55108 16.4974 4.3488 15.8833 4.42913 15.7841C5.13176 12.9458 3.74123 14.254 3.51205 12.3862C3.58574 12.3862 2.99622 13.4641 3.07433 14.0793V14.0992C2.57139 13.8445 2.84405 13.0726 3.11375 12.8109C3.30867 12.6373 3.23424 12.4791 3.04006 12.5211C2.90337 12.5495 2.80905 12.6686 2.72504 12.7932C2.43947 13.2164 2.52165 14.1036 2.97706 14.254C3.01722 14.2765 3.05407 14.3008 3.08759 14.3218C3.00138 14.9271 3.67085 15.8085 4.20695 16.5335C4.30422 16.6684 4.37091 16.8472 4.33628 16.8517C4.30164 16.8561 4.21579 16.6205 4.13252 16.5291C4.04925 16.4377 3.81197 16.1974 3.71175 16.0846C3.15355 15.3149 2.98222 14.7944 2.5036 14.6971C1.96491 14.5865 1.66425 14.7509 0.876873 14.7011C0.683436 14.689 0.626326 14.6724 0.496263 14.6576C1.02904 15.0395 1.01873 15.0937 1.3846 15.6946C1.85143 16.4617 2.40742 16.3986 3.30719 16.4499C3.6388 16.4889 3.84366 16.7245 3.95124 16.8421C4.05883 16.9597 4.33038 17.3828 4.33038 17.3828C4.1526 17.4134 3.97236 17.427 3.79207 17.4234C3.6451 17.3916 3.49569 17.3724 3.34551 17.3659C3.34551 17.284 3.64653 17.374 3.92803 17.3766C4.03857 17.3788 4.15868 17.3795 4.12257 17.3434C4.07836 17.2999 3.99509 17.235 3.92545 17.235C3.85581 17.235 3.70217 17.2431 3.59385 17.235C3.43162 17.2277 3.26913 17.2292 3.10712 17.2394C3.05775 17.2483 3.05296 17.2177 3.09275 17.2048C3.13255 17.1919 3.52016 17.1871 3.61411 17.1871C3.90077 17.1871 3.90887 17.1897 3.90408 17.1871C3.94207 17.1887 3.97998 17.1925 4.01756 17.1985C4.03967 17.1985 4.06915 17.2129 4.07504 17.2048C4.08094 17.1967 3.9483 17.0872 3.79613 17.0677C3.64396 17.0481 3.36062 17.054 3.16202 17.0607C2.96343 17.0673 2.89637 17.078 2.77736 17.0736C2.65835 17.0691 2.61119 17.054 2.56955 17.0345C2.52792 17.0149 2.459 16.9917 2.46674 16.9762C2.47449 16.9608 2.71878 17.0061 3.05333 16.9884C3.26961 16.977 3.67491 16.9947 3.67491 16.9947C3.67491 16.9947 3.31603 16.5955 2.8142 16.5955C2.31236 16.5955 1.86027 16.8594 1.85953 16.9195C1.85879 16.9796 2.1495 17.6198 2.65909 17.6198C3.16865 17.6198 3.29614 17.5159 3.70107 17.5159C4.10599 17.5159 4.52861 17.7529 4.70252 17.8019C4.86611 17.8819 5.31562 18.0047 5.42726 18.0047C5.5389 18.0047 5.54332 17.9372 5.51569 17.931V17.9306ZM14.7645 6.63509C14.6621 6.64541 14.4698 6.60413 14.4698 6.56616C14.4698 6.52819 14.6964 6.43567 14.7211 6.38185C14.7458 6.32803 14.7679 6.26868 14.7307 6.265C14.6934 6.26131 14.5704 6.33356 14.4727 6.32693C14.3751 6.32029 14.2826 6.19496 14.2517 6.18685C14.2517 6.18685 14.2568 6.19975 14.1946 6.21339C14.1323 6.22703 13.9993 6.25025 13.94 6.2204C13.8806 6.19054 13.8095 6.0759 13.7882 6.0383C13.7785 6.01567 13.767 5.99384 13.7539 5.97305C13.7259 5.93177 13.7428 5.79206 13.7428 5.79206C13.7428 5.79206 13.6356 5.96494 13.5737 5.94504C13.5547 5.93689 13.5381 5.92421 13.5252 5.90807C13.5124 5.89192 13.5037 5.87283 13.5 5.85252C13.4967 5.85893 13.4922 5.86461 13.4866 5.86918C13.4811 5.87375 13.4746 5.8771 13.4677 5.87902C13.4608 5.88097 13.4535 5.88145 13.4464 5.88046C13.4393 5.87943 13.4325 5.87696 13.4263 5.87316C13.3766 5.84588 13.3191 5.75336 13.2672 5.69291C13.2152 5.63245 13.1669 5.55136 13.129 5.52998C13.091 5.5086 12.9639 5.50049 12.9448 5.48574C12.9256 5.471 12.9473 5.32687 13.0715 5.32355C13.1508 5.32068 13.2302 5.32871 13.3073 5.34751C13.363 5.35783 13.6146 5.11049 13.7863 5.12413C13.958 5.13777 14.0564 5.3888 14.168 5.39912C14.2797 5.40944 14.4226 5.35525 14.4536 5.37848C14.4845 5.4017 14.5965 5.59154 14.6304 5.60518C14.6643 5.61881 14.6349 5.67079 14.6544 5.69291C14.6739 5.71502 14.7229 5.72092 14.7734 5.75631C14.8239 5.7917 14.8696 5.82155 14.8913 5.88348C14.9112 5.94696 14.9144 6.01452 14.9005 6.07958C14.8883 6.13119 14.8603 6.13783 14.8666 6.19275C14.8729 6.24767 14.9473 6.32693 14.9377 6.38517C14.9281 6.44341 14.8696 6.62587 14.7671 6.63619L14.7645 6.63509ZM9.28973 16.6132C9.29931 16.6603 9.34832 16.681 9.39695 16.681C9.46548 16.681 9.51854 16.6338 9.52738 16.4856C9.50914 16.5077 9.48619 16.5253 9.46025 16.5373C9.43431 16.5493 9.40598 16.5553 9.37743 16.5549C9.23741 16.5549 9.13793 16.4484 9.13793 16.2925C9.13793 16.173 9.18915 16.0031 9.3988 16.0031C9.46659 16.0031 9.67329 16.0108 9.67329 16.3916C9.67329 16.4738 9.66334 16.8148 9.38995 16.8148C9.21899 16.8148 9.16888 16.6931 9.1512 16.6132H9.28973ZM8.62284 16.6309C8.63242 16.6777 8.68142 16.6983 8.72932 16.6983C8.79785 16.6983 8.85054 16.6511 8.85901 16.504C8.84111 16.5258 8.81859 16.5433 8.7931 16.5552C8.7676 16.5671 8.73975 16.5732 8.71163 16.573C8.57236 16.573 8.47325 16.4668 8.47325 16.312C8.47325 16.1929 8.52409 16.0237 8.73116 16.0237C8.79822 16.0237 9.00418 16.0315 9.00418 16.4104C9.00418 16.4923 8.99424 16.8314 8.72232 16.8314C8.55209 16.8314 8.50125 16.7105 8.48504 16.6309H8.62284ZM12.7005 18.0006C12.8188 17.9474 12.9284 17.8764 13.0255 17.7901C13.1252 17.6942 13.2128 17.5863 13.2863 17.4691C13.2863 17.4691 13.5689 16.9899 13.6548 16.5649C13.6695 16.507 13.8497 15.856 13.7701 15.7539C13.0752 12.8676 14.4503 14.1984 14.6769 12.2996C14.6032 12.2996 15.1879 13.3955 15.1094 14.0207C15.1094 14.0273 15.1094 14.0343 15.1094 14.041C15.6065 13.7829 15.3371 12.9974 15.0704 12.7313C14.8777 12.5547 14.9514 12.3958 15.1441 12.4364C15.2789 12.4655 15.3721 12.5864 15.4554 12.7132C15.7376 13.1434 15.6566 14.0454 15.2063 14.198C15.1665 14.2208 15.1301 14.2455 15.0987 14.2669C15.1842 14.8825 14.5221 15.7782 13.9934 16.5155C13.8972 16.653 13.8313 16.8343 13.8659 16.8391C13.9005 16.8439 14.0114 16.6441 14.0936 16.5509C14.1758 16.4576 14.3839 16.1745 14.4831 16.0591C15.0357 15.2769 15.2045 14.7487 15.6776 14.6488C16.2104 14.5364 16.5077 14.7034 17.2859 14.6529C17.4771 14.6407 17.5338 14.6237 17.6624 14.609C17.133 14.999 17.1429 15.0513 16.7811 15.6636C16.3224 16.444 15.7697 16.3798 14.881 16.4322C14.5516 16.472 14.3504 16.7112 14.2443 16.831C14.1382 16.9508 13.8692 17.3802 13.8692 17.3802C14.0449 17.4116 14.2232 17.4256 14.4016 17.4219C14.547 17.3895 14.6949 17.3699 14.8438 17.3633C14.8438 17.28 14.5461 17.3714 14.2679 17.374C14.1573 17.3762 14.0398 17.3773 14.0755 17.3404C14.119 17.2962 14.2016 17.2299 14.2705 17.2299C14.3394 17.2299 14.4915 17.2383 14.5991 17.2299C14.7594 17.2224 14.9199 17.224 15.0799 17.2346C15.1293 17.2431 15.1337 17.2125 15.0943 17.1978C15.0549 17.183 14.6721 17.1797 14.5785 17.1797C14.2951 17.1797 14.2867 17.1823 14.2918 17.1797C14.2548 17.1814 14.2179 17.1852 14.1813 17.1911C14.1592 17.1911 14.1301 17.2059 14.1242 17.1978C14.1183 17.1897 14.2495 17.078 14.4002 17.0581C14.5508 17.0382 14.8305 17.0444 15.0265 17.0511C15.2225 17.0577 15.2892 17.0688 15.4071 17.0643C15.525 17.0599 15.5711 17.0444 15.6127 17.0245C15.6544 17.0046 15.7233 16.9814 15.714 16.9652C15.7048 16.949 15.465 16.9958 15.1341 16.9777C14.9204 16.9659 14.5195 16.984 14.5195 16.984C14.5195 16.984 14.8729 16.5785 15.3699 16.5785C15.867 16.5785 16.3128 16.8469 16.3139 16.9103C16.315 16.9737 16.0276 17.6198 15.5217 17.6198C15.0158 17.6198 14.892 17.5137 14.4901 17.5137C14.0881 17.5137 13.6717 17.7444 13.4997 17.7942C13.3276 17.844 12.9068 18.0482 12.7963 18.0482C12.6857 18.0482 12.6714 18.0054 12.699 17.9992L12.7005 18.0006ZM15.5295 14.1246C15.6886 13.805 15.6451 13.3251 15.6805 13.3656C15.8091 13.5131 15.8857 13.3708 15.9447 13.2484C15.9717 13.1927 15.9976 13.1342 16.0224 13.073C15.8751 12.4437 15.5803 11.9531 15.3062 11.3246C15.1396 10.9446 15.3928 10.4422 15.276 10.0665C15.8445 10.3917 16.2037 10.7382 16.4023 11.0987C16.399 11.0504 16.3938 11.005 16.3868 10.963C15.1278 9.00935 16.9727 9.56743 15.9108 7.85705C17.5644 8.81545 17.1882 9.73699 16.8765 10.5269C16.8269 10.6677 16.7864 10.8115 16.7553 10.9575C16.7998 10.9156 16.8358 10.8656 16.8614 10.81C17.0121 10.4477 17.5335 10.3526 17.5287 10.8635C16.9638 10.6209 16.6982 11.3058 16.5987 11.8587C16.5955 12.0551 16.5619 12.2497 16.4988 12.4356C16.3117 13.3129 16.0368 13.9746 16.0048 13.8334C15.9734 13.8703 16.0305 13.8703 16.0493 13.8629C16.3194 13.7958 16.3927 13.3303 16.4377 13.24C16.6724 12.7829 16.4819 12.0784 17.2457 11.7824C17.4067 11.7342 17.7107 11.1978 17.6878 11.1145C17.6901 11.1621 17.8761 11.5605 17.9911 11.7953C18.3183 12.6656 18.2217 13.1703 16.8997 13.6561C16.5466 13.8909 16.1678 14.0846 15.7708 14.2334C15.8213 14.2334 16.8621 14.4376 16.633 14.0568C16.6212 13.8084 17.3109 13.7044 17.2704 13.6915C17.5861 14.9223 15.9071 14.2297 15.255 14.7623C15.255 14.7623 15.4311 14.2942 15.528 14.1257L15.5295 14.1246ZM9.00013 7.68933H12.8589L12.8405 9.44468C12.5384 9.65664 12.3984 11.3003 12.433 11.3685C12.4433 11.3888 12.3615 11.5111 12.5192 12.2134C12.5428 12.3169 12.7185 12.8507 12.8976 13.3089C13.5391 14.9507 12.9632 16.7256 11.1475 17.1333C10.9755 17.1719 10.793 17.2087 10.5999 17.2439C9.82399 17.3817 9.16041 17.9855 9.15378 17.9914L9.06387 18.0589L8.97729 17.9885L8.94818 17.963V17.9575C8.73374 17.785 8.2017 17.4009 7.6026 17.294C7.41001 17.2601 7.22751 17.2232 7.05508 17.1834C5.23935 16.779 4.66309 15.0027 5.30567 13.3623C5.48474 12.9041 5.66049 12.3704 5.6837 12.2672C5.84177 11.565 5.75997 11.4422 5.77029 11.4219C5.80492 11.3537 5.68333 9.62493 5.38157 9.41261V7.69523L9.00013 7.68933ZM9.05466 17.7337L9.06498 17.7426C9.26136 17.5778 9.85641 17.1211 10.5598 16.9965C12.3604 16.6769 13.3029 15.3241 12.6401 13.3546C12.6401 13.3575 12.4304 12.8109 12.4293 12.8087C12.2661 12.4891 12.1427 11.8853 12.1393 11.4337C12.1393 11.274 12.1507 11.1145 12.1736 10.9564C12.1972 10.7875 12.2981 9.65958 12.5789 9.41409L5.66307 9.42072C5.94272 9.66622 6.00573 10.841 6.02894 11.0098C6.05208 11.1679 6.06365 11.3274 6.06358 11.4872C6.06026 11.9387 5.93683 12.5425 5.77324 12.8625C5.77324 12.8643 5.56322 13.4114 5.56248 13.408C4.89927 15.3776 5.84214 16.7307 7.64313 17.05C8.26618 17.1606 8.80448 17.5317 9.05577 17.7297V17.7337H9.05466ZM6.89001 0.39958L7.02965 0.861824H7.47953L7.11477 1.14787L7.25404 1.60975L6.89001 1.32407L6.52524 1.60975L6.66452 1.14787L6.30049 0.861824H6.75L6.89001 0.39958ZM9.08598 0L9.22526 0.462245H9.67624L9.3111 0.747922L9.45075 1.21017L9.08598 0.924489L8.72085 1.21017L8.86012 0.747922L8.49535 0.462245H8.94634L9.08598 0ZM11.1567 0.444551L11.2959 0.907164H11.7473L11.3822 1.19247L11.5214 1.65509L11.1567 1.36941L10.7919 1.65509L10.9312 1.19247L10.566 0.907164H11.0167L11.1559 0.444551H11.1567ZM13.1128 1.53787L13.2524 2.00011H13.7034L13.3379 2.28542L13.4772 2.74766L13.112 2.46199L12.7484 2.74803L12.8873 2.28542L12.5225 1.99974H12.9735L13.1128 1.5375V1.53787ZM14.2244 5.65273C14.1632 5.61587 14.1632 5.49422 14.126 5.49275C14.098 5.49275 14.1087 5.54841 14.0936 5.58269C14.0785 5.61697 14.0461 5.62213 14.028 5.68148C14.01 5.74083 13.9761 5.91924 13.9993 5.93177C14.0225 5.9443 14.094 5.91739 14.1662 5.87906C14.2384 5.84072 14.3987 5.77548 14.4053 5.75115C14.4119 5.72682 14.2856 5.68996 14.2244 5.65273ZM3.79207 6.32398C3.66791 6.36084 3.48478 6.21339 3.44536 6.26721C3.43814 6.28741 3.43711 6.30931 3.44234 6.3301C3.44761 6.35092 3.45888 6.36969 3.47484 6.38406C3.53047 6.42756 3.74307 6.5046 3.73681 6.53483C3.73054 6.56505 3.49436 6.64541 3.43541 6.62845C3.37646 6.6115 3.25561 6.53483 3.24898 6.41097C3.24234 6.28712 3.2884 6.29375 3.30793 6.21708C3.32746 6.14041 3.19739 5.9996 3.29135 5.8691C3.3853 5.73862 3.48147 5.72829 3.54042 5.66821C3.59937 5.60812 3.62553 5.471 3.72465 5.41018C3.82376 5.34936 3.93393 5.43709 4.0651 5.40023C4.19626 5.36336 4.22537 5.13593 4.43834 5.13925C4.6513 5.14256 4.82742 5.2631 4.89632 5.31655C4.96522 5.37 5.01091 5.31987 5.04997 5.31655C5.08902 5.31323 5.19403 5.29333 5.23419 5.33019C5.27435 5.36705 5.36831 5.48058 5.36831 5.48058C5.36831 5.48058 5.22424 5.47727 5.13913 5.5473C5.05557 5.62176 4.98136 5.70603 4.91806 5.79833C4.88858 5.84514 4.88527 5.88201 4.84621 5.88532C4.80716 5.88864 4.7611 5.81529 4.73162 5.82192C4.70215 5.82856 4.77436 5.91887 4.72168 5.9255C4.66899 5.93214 4.66936 5.969 4.62993 5.9255C4.59051 5.88201 4.52529 5.80165 4.50576 5.80165C4.48623 5.80165 4.53524 5.90892 4.49913 5.96568C4.44276 6.03815 4.38119 6.10638 4.31491 6.1699C4.23311 6.2532 4.06952 6.22998 3.95824 6.17653C3.84697 6.12308 3.92693 6.2838 3.79097 6.32398H3.79207ZM3.8536 6.92519C3.8427 6.91763 3.834 6.90728 3.82851 6.89522C3.82299 6.88313 3.82085 6.86982 3.82229 6.85663C3.82229 6.80318 3.88898 6.69333 4.01462 6.65205C4.15548 6.59915 4.28944 6.52948 4.41365 6.44451C4.54334 6.36084 4.66346 6.25394 4.76515 6.20639C4.86685 6.15884 4.95712 6.10944 4.99728 6.12566C5.03744 6.14188 5.06323 6.21376 5.0647 6.2521C5.06618 6.29043 4.93501 6.40286 4.82116 6.45815C4.70731 6.51345 4.5964 6.51713 4.54187 6.54588C4.48734 6.57464 4.44497 6.62772 4.39191 6.67158C4.33885 6.71545 4.29353 6.70033 4.22316 6.72098C4.15279 6.74162 4.08278 6.74789 4.05809 6.78217C4.03341 6.81645 3.93466 6.84704 3.91735 6.85589C3.90003 6.86474 3.87055 6.92261 3.8536 6.92445V6.92519ZM4.46929 7.36753C4.46229 7.38928 4.42102 7.38928 4.39339 7.37859C4.36575 7.3679 4.30938 7.27021 4.30238 7.24146C4.28355 7.19649 4.25393 7.15687 4.21616 7.12609C4.19037 7.11171 4.09568 7.10987 4.0651 7.0977C4.06049 7.09077 4.05762 7.08285 4.05666 7.07459C4.0557 7.06633 4.05669 7.05797 4.05957 7.05015C4.07025 7.02508 4.07689 7.04315 4.12663 7.05752C4.1659 7.0684 4.20721 7.06965 4.24711 7.06121C4.29022 7.05568 4.2729 7.02435 4.2939 7.00002C4.31491 6.97569 4.30422 6.97827 4.28874 6.93846C4.27327 6.89865 4.29538 6.90602 4.31601 6.87543C4.32813 6.85442 4.34796 6.83897 4.37128 6.8323C4.39523 6.82124 4.40812 6.83562 4.44497 6.84299C4.48181 6.85036 4.47739 6.8699 4.49987 6.8828C4.52234 6.8957 4.55145 6.87911 4.57945 6.90086C4.60746 6.92261 4.5754 6.9838 4.54261 7.01145C4.50982 7.03909 4.43428 7.09438 4.4376 7.13751C4.44092 7.18064 4.47739 7.34504 4.47039 7.36642L4.46929 7.36753ZM5.12329 9.60613C5.14208 9.72962 5.14208 9.88075 5.12329 9.93236C5.10052 10.022 5.09278 10.1148 5.10044 10.207C5.12701 10.3118 5.14731 10.4182 5.16124 10.5255C5.16492 10.6051 5.18003 10.7131 5.1535 10.7721C5.12697 10.831 5.12366 10.987 5.06618 10.9792C5.0087 10.9715 4.8989 10.74 4.83811 10.7083C4.77731 10.6766 4.47739 10.6766 4.32559 10.6924C4.17379 10.7083 3.90003 10.6924 3.82008 10.7083C3.74012 10.7241 3.75928 10.7761 3.68706 10.7643C3.61485 10.7525 3.56179 10.6408 3.56548 10.5531C3.56916 10.4654 3.63917 10.3065 3.71286 10.0437C3.79952 9.72487 3.86414 9.40045 3.90629 9.07275C3.93282 8.82614 4.01278 8.41993 4.00909 8.20502C4.00541 7.99012 4.12294 7.85484 4.12294 7.7472C4.12294 7.63957 3.97888 7.61598 3.96746 7.50465C3.96193 7.45305 4.1001 7.26985 4.16089 7.27353C4.22169 7.27722 4.28064 7.36937 4.33996 7.50465C4.38933 7.61524 4.32375 7.96469 4.33185 8.03767C4.33996 8.11066 4.34733 8.16927 4.3687 8.10144C4.39007 8.03362 4.40149 7.93225 4.42212 7.84341C4.44069 7.75148 4.47091 7.66231 4.51203 7.57801C4.54666 7.52087 4.7331 7.42172 4.76994 7.41766C4.80679 7.41361 4.87606 7.42172 4.88048 7.45747C4.8849 7.49323 4.71725 7.57285 4.68704 7.64436C4.64666 7.76471 4.61236 7.88698 4.58424 8.01076C4.56914 8.07454 4.53119 8.1501 4.53487 8.19765C4.53856 8.2452 4.5614 8.30824 4.51976 8.3967C4.47813 8.48517 4.32449 8.84789 4.27659 8.9382C4.20069 9.08123 4.155 9.66253 4.17416 9.66659C4.19332 9.67064 4.3068 9.29797 4.34512 9.29797C4.38344 9.29797 4.33443 9.5748 4.33775 9.62973C4.34107 9.68465 4.32596 9.80592 4.36022 9.83357C4.39449 9.86122 4.51682 9.76206 4.52566 9.70234C4.5345 9.64263 4.47408 8.89839 4.49692 8.81066C4.51976 8.72293 4.73605 8.3451 4.75152 8.24557C4.767 8.14605 4.77621 7.65394 4.83221 7.6451C4.88822 7.63625 4.95269 7.83973 4.97959 7.97906C5.00649 8.1184 5.01644 8.5283 5.02159 8.63962C5.02675 8.75095 5.04039 9.3599 5.04039 9.40782C5.04039 9.45574 5.10118 9.48339 5.12034 9.60687L5.12329 9.60613ZM14.3891 9.43915C14.42 9.57259 14.5063 10.0267 14.5578 10.207C14.6094 10.3872 14.6441 10.5207 14.6315 10.6036C14.619 10.6865 14.58 10.7588 14.4941 10.7337C14.4083 10.7087 14.052 10.6759 13.8574 10.6759C13.6629 10.6759 13.3641 10.639 13.3386 10.6965C13.3132 10.754 13.262 10.9789 13.1913 10.9678C13.1205 10.9567 13.0365 10.6865 13.0501 10.5675C13.0638 10.4484 13.112 10.2287 13.119 10.162C13.126 10.0953 13.056 9.65774 13.0951 9.54716C13.1342 9.43657 13.1795 9.37722 13.1839 9.32341C13.1883 9.26959 13.1743 8.51982 13.1813 8.2817C13.1883 8.04357 13.3051 7.62187 13.3534 7.61819C13.4016 7.6145 13.412 8.13425 13.4669 8.2312C13.5218 8.32814 13.6596 8.52314 13.6802 8.67354C13.7008 8.82393 13.6529 9.1461 13.6736 9.39823C13.6942 9.65037 13.7974 9.84905 13.8283 9.83468C13.8593 9.8203 13.8924 9.75358 13.8862 9.66438C13.8799 9.57517 13.825 9.27217 13.8559 9.25411C13.8869 9.23604 14.0081 9.65958 14.0313 9.66143C14.0545 9.66327 14.0623 9.18923 14.014 9.07754C13.9657 8.96585 13.818 8.72035 13.7388 8.51134C13.6596 8.30234 13.6699 8.15784 13.6389 8.01371C13.608 7.86958 13.5531 7.60271 13.4702 7.5452C13.3873 7.4877 13.3088 7.45858 13.3257 7.42614C13.3427 7.3937 13.5358 7.34689 13.6205 7.4512C13.7133 7.57123 13.7749 7.71248 13.7996 7.86221C13.8239 8.00966 13.8272 8.06974 13.8733 8.06974C13.9193 8.06974 13.8475 7.64252 13.8784 7.50355C13.9094 7.36458 13.9746 7.25658 14.0258 7.25105C14.077 7.24552 14.1772 7.31777 14.1946 7.36458C14.2119 7.41139 14.2443 7.4818 14.2203 7.52345C14.1964 7.56511 14.0689 7.68749 14.0877 7.73983C14.1065 7.79217 14.2041 7.87954 14.2122 7.96469C14.2203 8.04984 14.2461 8.57438 14.2598 8.6916C14.2734 8.80882 14.3578 9.30461 14.3887 9.43805L14.3891 9.43915ZM13.8906 7.07743C13.9145 7.10102 14.0195 7.05568 14.0678 7.05752C14.1161 7.05937 14.0984 7.09918 14.0763 7.12092C14.0542 7.14267 13.9112 7.13346 13.8803 7.18912C13.8493 7.24478 13.7819 7.38043 13.713 7.38043C13.6441 7.38043 13.7012 7.21971 13.7148 7.14415C13.7285 7.06858 13.5605 7.01587 13.5675 6.9204C13.5711 6.88096 13.5984 6.8898 13.6537 6.88354C13.7089 6.87727 13.7093 6.82714 13.7723 6.82935C13.8353 6.83156 13.8633 6.88722 13.86 6.94473C13.8567 7.00223 13.8652 7.05531 13.8895 7.07817L13.8906 7.07743ZM14.28 6.8194C14.2627 6.88169 14.1422 6.7689 14.1223 6.74825C14.0698 6.70491 14.0074 6.67516 13.9407 6.66163C13.8547 6.64287 13.7778 6.59509 13.7229 6.52635C13.6684 6.45852 13.6334 6.48285 13.5118 6.44341C13.3902 6.40397 13.2141 6.23109 13.2248 6.1522C13.2355 6.07332 13.2447 6.09359 13.2675 6.07295C13.2904 6.05231 13.44 6.12566 13.5254 6.17469C13.6109 6.22371 13.734 6.36637 13.8287 6.44157C13.9234 6.51676 14.101 6.60155 14.1747 6.64283C14.2483 6.68412 14.2988 6.75747 14.2815 6.8194H14.28ZM8.82696 5.7353H8.8638C8.90728 5.7353 8.95113 5.7353 8.99645 5.7353H9.02297C9.06829 5.7353 9.11214 5.7353 9.15562 5.7353H9.16925L9.26247 5.73272C9.28808 5.73563 9.31353 5.73994 9.33874 5.74562C9.43748 5.76958 9.55981 5.93546 9.70387 6.03535C9.91374 6.17255 10.1357 6.29025 10.3671 6.38701C10.5667 6.47024 10.7722 6.53851 10.982 6.59122C11.2248 6.65426 11.4629 6.6867 11.461 6.71434C11.4592 6.74199 11.3685 6.73167 11.0495 6.69739C10.7488 6.66362 10.4525 6.59889 10.1652 6.50423C9.94779 6.4283 9.6125 6.25947 9.33911 6.1006C9.08635 5.95315 8.84059 5.78543 8.8277 5.73493L8.82696 5.7353ZM8.38482 5.71318C8.44745 5.71797 8.5123 5.72203 8.5801 5.72571C8.58894 5.74378 8.82291 5.92034 8.9117 5.98374C9.0624 6.08688 9.21999 6.17963 9.38332 6.26131C9.50712 6.31734 9.91131 6.48506 9.96474 6.50681C10.0182 6.52856 10.307 6.6174 10.4345 6.65426C10.562 6.69112 10.891 6.74567 11.0167 6.76669C11.1423 6.7877 11.4142 6.8205 11.5071 6.8135C11.5999 6.8065 11.8582 6.75563 11.8582 6.7324C11.8582 6.70918 11.5369 6.65205 11.1854 6.57169C10.9885 6.53036 10.7965 6.46859 10.6125 6.38738C10.6125 6.38738 10.0686 6.12013 9.97616 6.05231C9.88368 5.98448 9.55575 5.79243 9.56607 5.75262C9.56784 5.7447 9.57138 5.73725 9.57643 5.73087C9.58144 5.7245 9.58785 5.71934 9.59518 5.71576C9.68434 5.70949 9.76798 5.70212 9.84646 5.69438C9.87966 5.69151 9.91308 5.69151 9.94631 5.69438C9.98611 5.70175 10.2241 5.9572 10.3645 6.04088C10.5049 6.12456 10.8464 6.2462 11.108 6.32545C11.3696 6.4047 11.4934 6.46626 11.7171 6.52045C11.9407 6.57464 12.1861 6.63656 12.2952 6.60302C12.4043 6.56948 12.4227 6.5492 12.402 6.50239C12.3814 6.45557 12.3608 6.43382 12.3796 6.42866C12.5024 6.41713 12.6263 6.42774 12.7454 6.46C12.8928 6.50792 12.9216 6.55842 12.9905 6.56579C13.0594 6.57316 13.2451 6.55141 13.3416 6.58385C13.4381 6.61629 13.6032 6.68485 13.5822 6.76816C13.5612 6.85147 13.4422 6.85626 13.3759 6.82935C13.3095 6.80244 13.2314 6.69222 13.0936 6.69222C12.9558 6.69222 12.4304 6.90123 12.1611 6.91597C11.8917 6.93072 11.0874 6.94473 10.7363 6.93035C10.3947 6.91903 10.0564 6.85947 9.73151 6.75342C9.42164 6.6491 9.0274 6.33098 8.90286 6.23219C8.77832 6.1334 8.38924 5.81271 8.3255 5.73677C8.31334 5.7224 8.33471 5.71465 8.38482 5.71134V5.71318ZM10.1022 5.66563C10.2495 5.6472 10.3671 5.62877 10.4544 5.61218C10.6067 5.77839 10.7894 5.91378 10.9927 6.01102C11.2271 6.1174 11.4672 6.21066 11.7119 6.29043C11.8685 6.34241 12.1132 6.47142 12.1128 6.48506C12.1124 6.4987 11.87 6.49944 11.6121 6.41466C11.3542 6.32987 11.2197 6.26721 11.0373 6.20749C10.8549 6.14778 10.5745 6.04899 10.4297 5.97158C10.2849 5.89417 10.1235 5.72461 10.1011 5.67669C10.0998 5.67348 10.0998 5.66994 10.1011 5.66673L10.1022 5.66563ZM10.055 3.378C10.1589 3.378 10.2433 3.479 10.2433 3.60359C10.2433 3.72818 10.1589 3.82955 10.055 3.82955C9.84315 3.79896 9.88294 3.38721 10.055 3.378ZM8.77611 3.18669C8.77611 3.17231 8.79011 3.16162 8.81296 3.16162C8.8358 3.16162 8.83322 3.18116 8.88444 3.18116C8.93565 3.18116 8.99166 3.04514 9.02408 3.03961C9.03797 3.02772 9.05496 3.02005 9.07308 3.01749C9.08388 3.01888 9.09445 3.02186 9.1044 3.02634C9.11306 3.02828 9.12128 3.03178 9.12872 3.03666C9.14862 3.03998 9.19283 3.12918 9.24515 3.16457C9.27757 3.18632 9.32658 3.16162 9.33542 3.16162C9.35937 3.16162 9.37227 3.17231 9.37227 3.18669C9.37227 3.20106 9.27168 3.31754 9.2481 3.32086C9.22452 3.32418 9.14751 3.16678 9.07382 3.16678C9.00013 3.16678 8.92165 3.32234 8.89954 3.32086C8.87744 3.31939 8.77464 3.20069 8.77464 3.18669H8.77611ZM7.90399 3.59216C7.90399 3.4672 7.99168 3.37652 8.09558 3.37652C8.12801 3.37652 8.1549 3.40491 8.17664 3.42481C8.22417 3.46794 8.24628 3.5354 8.24628 3.61944C8.24772 3.65026 8.24237 3.681 8.23066 3.70953C8.21894 3.73806 8.20114 3.76368 8.17848 3.78458C8.15512 3.80607 8.12653 3.82107 8.09558 3.82808C7.99168 3.82808 7.90399 3.71749 7.90399 3.59216ZM7.53959 4.16573C7.51022 4.13333 7.47817 4.10347 7.44379 4.07652C7.43561 4.0773 7.42758 4.07903 7.41984 4.08169C7.41347 4.11847 7.41524 4.15622 7.425 4.19227C7.44195 4.22913 7.46443 4.28184 7.45079 4.30286C7.43716 4.32387 7.35684 4.29585 7.30894 4.22065C7.24612 4.12238 7.21285 4.00811 7.21314 3.89148C7.21314 3.74403 7.23562 3.60507 7.34468 3.60507C7.38374 3.60507 7.42124 3.62058 7.44888 3.64827C7.47651 3.67591 7.49206 3.7134 7.49206 3.75251C7.49206 3.80965 7.43569 3.90291 7.43384 3.94751C7.432 3.99211 7.48838 4.03524 7.53959 4.04409C7.59081 4.05293 7.65013 4.08906 7.65786 4.13182C7.6656 4.17458 7.69471 4.30802 7.67334 4.31613C7.65197 4.32423 7.58233 4.20849 7.53812 4.16536L7.53959 4.16573ZM7.7065 5.33203C7.69618 5.2819 7.67629 4.95346 7.70208 4.9037C7.72824 4.88306 7.86862 4.82998 8.14422 4.76141C8.41982 4.69285 8.8907 4.67442 8.92128 4.68769C8.95186 4.70096 8.92128 5.05631 8.88812 5.07142C8.88812 5.03456 8.16559 5.12192 7.70687 5.33129L7.7065 5.33203ZM10.3726 5.45367C10.0178 5.37221 9.63755 5.21297 9.08672 5.19306C8.62799 5.17611 8.20243 5.28301 7.7695 5.4393C7.76832 5.41132 7.77636 5.38375 7.79235 5.36078C8.24923 5.14809 8.94376 5.10275 9.09077 5.10902C9.09077 5.10902 9.46696 5.13593 9.67219 5.1691C9.87741 5.20228 10.324 5.33019 10.3579 5.36594C10.3918 5.4017 10.3907 5.45625 10.3726 5.45367ZM9.00013 4.82998C9.00713 4.78501 9.04434 4.77948 9.07382 4.778C9.1033 4.77653 9.14235 4.78537 9.14751 4.82998C9.15267 4.87458 9.14419 4.96784 9.12356 4.97742C9.10739 4.98446 9.08996 4.98811 9.07235 4.98811C9.0547 4.98811 9.03727 4.98446 9.02113 4.97742C9.0005 4.96673 8.99055 4.87347 8.99718 4.82998H9.00013ZM9.39069 4.93687C9.39953 4.86905 9.373 4.81413 9.45259 4.80786C9.53217 4.80159 9.58155 4.80159 9.5727 4.88785C9.56386 4.97411 9.52591 5.02313 9.4817 5.02313C9.43748 5.02313 9.38185 5.0047 9.39069 4.93687ZM10.0863 4.9859C10.0307 4.96157 10.0042 4.98295 9.93673 4.98295C9.86931 4.98295 9.82251 4.93393 9.80778 4.96784C9.79304 5.00175 9.8192 5.04451 9.82804 5.06921C9.83688 5.09391 9.86046 5.08137 9.81367 5.11529C9.79377 5.12929 9.6814 5.04451 9.69319 4.94941C9.70498 4.85431 9.82804 4.82334 9.9511 4.82629C10.0742 4.82924 10.209 4.90001 10.1917 4.98922C10.1744 5.07842 10.1066 5.1492 10.086 5.13998C10.0653 5.13077 10.1416 5.0106 10.086 4.9859H10.0863ZM10.8416 4.21955C10.7938 4.29327 10.7134 4.32165 10.6998 4.30175C10.6862 4.28184 10.7083 4.23024 10.7256 4.19116C10.7354 4.15511 10.7371 4.11737 10.7307 4.08058C10.723 4.07793 10.7149 4.07619 10.7068 4.07542C10.6724 4.10237 10.6403 4.13222 10.611 4.16462C10.5668 4.20775 10.4968 4.32423 10.4758 4.31539C10.4548 4.30654 10.4846 4.17384 10.4916 4.13108C10.4986 4.08832 10.5579 4.05257 10.6095 4.04335C10.6611 4.03413 10.7171 3.99174 10.7153 3.94677C10.7134 3.9018 10.6571 3.80891 10.6571 3.75177C10.6571 3.71266 10.6726 3.67518 10.7002 3.64753C10.7278 3.61985 10.7653 3.60433 10.8044 3.60433C10.915 3.60433 10.9378 3.74219 10.936 3.89074C10.9362 4.00737 10.903 4.12164 10.8402 4.21992L10.8416 4.21955ZM4.14358 5.96605C4.17821 5.94799 4.18447 5.50418 4.14542 5.50418C4.10636 5.50418 4.06473 5.62729 4.00946 5.65162C3.95419 5.67595 3.83113 5.66157 3.81897 5.71613C3.81897 5.71613 4.10931 5.98338 4.14358 5.96531V5.96605ZM9.84794 16.1822H9.86783C9.93452 16.1822 10.0325 16.1373 10.0458 16.0455H10.1652V16.8089H10.0064V16.2726H9.84794V16.1822ZM9.40064 16.1369C9.31074 16.1369 9.27794 16.218 9.27794 16.288C9.27794 16.3806 9.331 16.4355 9.40174 16.4355C9.49422 16.4355 9.52738 16.3577 9.52738 16.288C9.52738 16.253 9.51265 16.1347 9.40064 16.1347V16.1369ZM8.73337 16.1483C8.64384 16.1483 8.61105 16.2291 8.61105 16.2987C8.61105 16.3905 8.6641 16.4462 8.73411 16.4462C8.82659 16.4462 8.85901 16.3688 8.85901 16.3009C8.85901 16.2641 8.84501 16.1483 8.73337 16.1483ZM7.96294 16.1822H7.98321C8.04953 16.1822 8.14753 16.1373 8.16117 16.0455H8.28018V16.8089H8.12138V16.2726H7.96294V16.1822ZM9.61655 18.3648H14.2657V18.276H9.61655V18.3648ZM3.89966 18.3648H8.54804V18.276H3.90003V18.3648H3.89966ZM16.1212 19.9996L14.4864 17.7426C14.4392 17.7384 14.3917 17.7384 14.3445 17.7426C14.301 17.7519 14.2586 17.7659 14.2181 17.7843L15.2866 19.561C15.2866 19.561 13.6098 19.1046 12.6054 19.0014C11.8928 18.9277 11.01 18.9362 10.3549 19.0342C9.69982 19.1323 9.02703 19.4629 9.02703 19.4629L9.02224 19.4651L9.01671 19.4629C9.01671 19.4629 8.34429 19.1312 7.69029 19.0342C7.03629 18.9373 6.15274 18.9281 5.44016 19.0014C4.43576 19.1046 2.75894 19.561 2.75894 19.561L3.82744 17.7843C3.7868 17.7658 3.74432 17.7518 3.7007 17.7426C3.65361 17.7384 3.60626 17.7384 3.55921 17.7426L1.92291 19.9996H1.93322L8.39329 19.6163L8.36345 19.9193H9.6814L9.65155 19.6163L16.1116 19.9996H16.1212ZM5.70507 16.8059C5.70507 16.8059 5.8893 16.8749 5.92983 16.9125C5.97036 16.9501 6.02378 17.1941 6.07721 17.3132C6.13063 17.4322 6.14169 17.5074 6.18332 17.5822C6.22496 17.6571 6.15127 17.67 6.09121 17.6073C6.03115 17.5447 5.88451 17.4945 5.88524 17.4569C5.88598 17.4193 5.83145 17.3508 5.77839 17.2317C5.72534 17.1126 5.65275 17.0378 5.65349 16.9685C5.65769 16.9074 5.66679 16.8468 5.68075 16.7871L5.70507 16.8059ZM2.66314 11.1901C2.66314 11.1901 2.32894 11.5609 2.29025 11.6619C2.23264 11.814 2.18453 11.9694 2.14619 12.1275C2.137 12.0142 2.14545 11.9001 2.17124 11.7894C2.16461 11.6545 2.35547 11.3136 2.66314 11.1904V11.1901ZM3.42657 16.2313C3.34109 16.2397 3.07986 16.0838 2.94464 16.0219C2.86649 15.9625 2.77872 15.9171 2.68525 15.8874C2.28472 16.0448 1.65578 15.5479 1.66536 15.5405C1.60862 15.5165 2.38568 15.9371 2.67124 15.7716C2.70809 15.7517 2.56071 15.6367 2.49218 15.5788C2.43653 15.5372 2.24088 15.4133 2.16829 15.4074C1.98103 15.3998 1.79771 15.3512 1.63129 15.2649C1.46487 15.1787 1.3194 15.057 1.20516 14.9083C1.2129 14.9017 1.47266 15.1409 1.82306 15.2323C1.93801 15.2828 2.17382 15.3344 2.23056 15.3256C2.14913 15.2261 1.96454 14.9061 2.00949 14.8302C2.02644 14.8807 2.47818 15.4881 2.59313 15.5187C2.62998 15.5696 2.66351 15.5556 2.68119 15.5165C2.6963 15.4682 2.6764 15.1431 2.70514 15.1439C2.73388 15.1446 2.72099 15.5331 2.83705 15.7569C2.94847 15.8618 3.06674 15.9592 3.19113 16.0484C3.29577 16.1004 3.45531 16.2416 3.42731 16.2327L3.42657 16.2313ZM4.09678 15.9677C4.06804 15.9677 4.04041 15.9179 4.0032 15.8638C3.96598 15.8096 3.85839 15.414 3.78876 15.3142C3.71912 15.2143 3.30977 14.8368 3.32525 14.7107C3.33962 14.6982 3.63217 15.0425 3.66496 15.0628C3.69775 15.083 3.71175 15.0978 3.74049 15.0628C3.6668 14.3797 3.14876 14.1781 3.19445 14.153C3.48921 14.2367 3.65427 14.4442 3.75412 14.5397C3.7836 14.5349 3.73533 14.4328 3.7217 14.3893C3.41073 13.947 3.4472 13.7435 3.5769 13.1047C3.57985 13.0914 3.51389 13.5621 3.65722 13.9462C3.66643 13.9709 3.67454 13.7571 3.98146 13.6145C3.99104 13.61 3.76039 13.8423 3.70107 14.0867C3.7077 14.243 3.77807 14.2994 3.82597 14.3753C3.92545 14.5334 3.86761 14.8571 3.86503 15.0333C3.86503 15.0974 3.8875 15.2585 3.91698 15.2585C3.94645 15.2585 3.94645 15.1372 3.94793 15.0488C3.92066 14.717 4.11852 14.1744 4.39707 14.0505C3.99435 14.3646 4.04299 15.567 4.20032 15.9305C4.22758 15.9943 4.1012 15.9648 4.09678 15.9648V15.9677ZM1.63036 13.6436C1.6403 13.665 1.72763 13.7125 1.66978 13.7501C1.65983 13.7568 1.17053 13.359 1.05557 13.3019C0.966038 13.2388 0.527581 13.1253 0.506948 13.1327C0.532739 13.0549 0.935456 13.1828 0.967512 13.1143C0.147339 12.7596 0.178658 12.628 0.211818 12.3818C0.239084 12.7305 1.05299 13.1143 0.697437 12.68C0.407097 12.321 0.376516 11.9951 0.439521 11.7412C0.390517 12.3228 1.00804 12.8861 1.13221 13.1596C1.12005 12.8647 0.856608 12.5329 1.13884 12.203C1.04378 12.3951 1.02278 13.0372 1.63036 13.6454V13.6436ZM1.55667 10.521C1.53014 10.5284 1.54524 10.2811 1.5235 10.1616C1.5563 10.0098 1.21106 9.67838 1.17421 9.6946C1.19042 9.6747 1.34259 9.70898 1.40192 9.74252C1.46418 9.79892 1.48924 9.92683 1.61009 10.0665C1.63146 10.0864 1.72063 10.0798 1.7092 9.78049C1.59867 9.25484 1.04599 9.2401 1.90117 8.40408C1.58614 8.72662 1.53272 9.09007 1.73684 9.45463C1.91848 9.70124 1.86395 9.92314 1.67789 10.1771C1.64472 10.2225 1.58319 10.5137 1.55667 10.521ZM1.80205 11.8506C1.79874 11.8248 1.79505 11.7994 1.79211 11.774C1.83816 11.82 1.90264 11.8801 1.93433 11.8812C1.98481 11.8831 2.01797 11.7032 2.01981 11.6302C2.01255 11.508 1.99853 11.3863 1.9778 11.2656C1.97117 11.2317 1.95791 11.1739 1.95054 11.1484C1.94813 11.1446 1.94638 11.1403 1.94538 11.1359C1.94538 11.1326 1.94722 11.1385 1.95017 11.1499C1.96675 11.1868 2.02607 11.2933 2.03307 11.3342C2.04731 11.3855 2.06733 11.4349 2.09276 11.4817C2.16387 11.3342 2.24014 11.1211 2.34773 10.935C2.45605 10.7912 2.49513 10.7938 2.46674 10.8495C2.43837 10.9051 2.29578 11.2203 2.29651 11.2181C2.28767 11.2303 2.08134 11.743 2.04081 11.9627C2.02939 12.0545 2.03565 12.5646 2.03565 12.5646C2.03565 12.5646 1.96565 12.3177 1.96196 12.2635C1.95828 12.2093 1.90964 12.0029 1.86985 11.9623C1.84333 11.9271 1.82072 11.889 1.80242 11.8488L1.80205 11.8506ZM4.88048 16.1454C4.88048 16.1454 4.78689 16.9438 4.9737 17.2663C5.27583 17.7883 5.62033 18.0183 6.16232 18.1237C6.16232 18.1237 6.59967 18.1956 6.79532 18.1956C6.94318 18.1926 7.09078 18.1814 7.23746 18.1621C7.07077 18.0477 6.92033 17.9113 6.79016 17.7566L6.72089 17.6696C6.7175 17.6661 6.71455 17.6623 6.71205 17.6582C6.51493 17.3832 6.51935 17.1237 6.44787 17.0739C6.37639 17.0242 6.10668 16.9445 6.06358 16.9497C6.02047 16.9549 6.01052 16.9829 6.03373 17.0212C6.0995 17.1343 6.15525 17.253 6.20027 17.3758C6.23196 17.4864 6.22975 17.6151 6.27691 17.663C6.32407 17.7109 6.51345 17.8381 6.5514 17.8668C6.58935 17.8956 6.63578 17.9037 6.63504 17.9405C6.63431 17.9774 6.63836 18.032 6.61478 18.0316C6.51603 18.0316 6.35428 17.8432 6.14242 17.7249C5.99025 17.6401 5.9313 17.5815 5.80197 17.5384C5.70802 17.5067 5.54406 17.4761 5.52711 17.4425C5.51016 17.409 5.54295 17.4016 5.6008 17.4164C5.65865 17.4311 5.77029 17.4389 5.79461 17.4245C5.81892 17.4101 5.5949 17.1071 5.491 17.0238C5.31672 16.9781 4.99507 16.6205 5.01202 16.6039C5.25003 16.7934 5.36315 16.862 5.57538 16.9479C5.61885 16.9652 5.61775 16.8406 5.61001 16.8126C5.60227 16.7846 5.44421 16.6795 5.30899 16.6091C5.14808 16.5192 5.01754 16.3834 4.9339 16.2191C4.92012 16.1919 4.90782 16.164 4.89706 16.1354C4.89706 16.1354 4.90332 16.1082 4.88158 16.1454H4.88048ZM12.5096 16.7941C12.5096 16.7941 12.3291 16.8642 12.2886 16.9022C12.248 16.9401 12.1961 17.1886 12.1434 17.3098C12.0907 17.4311 12.0796 17.5071 12.0384 17.5834C11.9971 17.6597 12.0701 17.6726 12.1294 17.6088C12.1887 17.545 12.3335 17.4941 12.3331 17.4558C12.3328 17.4175 12.3862 17.3478 12.4389 17.2269C12.4916 17.106 12.5631 17.0297 12.5619 16.9597C12.5578 16.8976 12.5488 16.836 12.5351 16.7753L12.5111 16.7945L12.5096 16.7941ZM15.5177 11.0854C15.5177 11.0854 15.8493 11.4621 15.8861 11.5646C15.9429 11.7193 15.9901 11.8774 16.0276 12.0379C16.0366 11.9227 16.0283 11.8067 16.0029 11.694C16.0092 11.5572 15.8187 11.2104 15.5162 11.0854H15.5177ZM14.762 16.2092C14.8467 16.2176 15.105 16.0599 15.2387 15.9961C15.3162 15.9363 15.4035 15.8906 15.4967 15.8608C15.8924 16.0212 16.5147 15.5158 16.5047 15.5084C16.5615 15.4841 15.7925 15.9117 15.5099 15.7436C15.4753 15.7233 15.6175 15.6065 15.6868 15.5475C15.7417 15.5051 15.9351 15.3794 16.007 15.3731C16.1935 15.3649 16.3758 15.315 16.5406 15.2272C16.7054 15.1394 16.8485 15.0158 16.9594 14.8655C16.9517 14.8593 16.6945 15.1022 16.3482 15.1951C16.2347 15.2449 16.0025 15.2979 15.9454 15.2887C16.0258 15.1874 16.2085 14.8622 16.1632 14.7848C16.147 14.8361 15.7008 15.4539 15.5869 15.4833C15.5501 15.5353 15.5173 15.5202 15.4996 15.4811C15.4849 15.4321 15.5044 15.1015 15.4764 15.1026C15.4484 15.1037 15.4606 15.4981 15.346 15.7255C15.2358 15.8314 15.1187 15.9299 14.9956 16.0204C14.892 16.0731 14.7347 16.2165 14.762 16.2077V16.2092ZM16.539 13.5787C16.5291 13.6005 16.4425 13.6487 16.4996 13.6871C16.5095 13.6937 16.9933 13.289 17.1072 13.2311C17.196 13.167 17.6293 13.052 17.6495 13.0593C17.6241 12.9801 17.2262 13.1106 17.1941 13.0405C18.0047 12.68 17.9745 12.5462 17.9417 12.2959C17.9144 12.6505 17.1097 13.0405 17.4627 12.5989C17.7497 12.234 17.7803 11.903 17.7206 11.6446C17.7678 12.2362 17.1569 12.8083 17.0342 13.0848C17.0464 12.7866 17.3069 12.4493 17.0279 12.1124C17.1219 12.3077 17.1425 12.9602 16.542 13.5787H16.539ZM16.6105 10.4042C16.6367 10.4119 16.6219 10.1605 16.6437 10.0389C16.6109 9.88444 16.9524 9.54789 16.9889 9.56411C16.9727 9.54384 16.8223 9.57886 16.7638 9.61314C16.7022 9.67027 16.6772 9.8004 16.5578 9.94231C16.5368 9.96259 16.4473 9.95558 16.4598 9.65147C16.5703 9.11698 17.1149 9.10224 16.27 8.25073C16.5814 8.5788 16.633 8.94815 16.4325 9.31972C16.2527 9.57075 16.3069 9.79634 16.4907 10.0544C16.5235 10.1004 16.5843 10.3964 16.6105 10.4038V10.4042ZM16.368 11.7559C16.3714 11.7297 16.375 11.7036 16.378 11.6778C16.3327 11.7249 16.2675 11.7858 16.2372 11.7883C16.1875 11.7883 16.1543 11.6074 16.1529 11.5329C16.1598 11.4087 16.1737 11.285 16.1945 11.1624C16.2008 11.1278 16.214 11.0692 16.2214 11.043C16.2238 11.0392 16.2254 11.0349 16.2262 11.0305C16.2262 11.0268 16.2244 11.033 16.2218 11.0448C16.2052 11.0839 16.1481 11.1904 16.1396 11.2336C16.1256 11.2848 16.1058 11.3343 16.0807 11.381C16.0103 11.2314 15.9333 11.015 15.8286 10.8255C15.7214 10.6781 15.6813 10.6818 15.7107 10.7385C15.7402 10.7953 15.8802 11.116 15.8802 11.1156C15.8887 11.1281 16.0932 11.649 16.133 11.8724C16.1444 11.9656 16.1381 12.4843 16.1381 12.4843C16.1381 12.4843 16.2074 12.2333 16.2118 12.1783C16.2162 12.1234 16.2638 11.9133 16.3032 11.872C16.3295 11.8361 16.3519 11.7974 16.3699 11.7566L16.368 11.7559ZM13.3254 16.1225C13.3254 16.1225 13.4179 16.9335 13.2333 17.2619C12.9345 17.7927 12.594 18.0264 12.0579 18.1337C12.0579 18.1337 11.6253 18.2074 11.4315 18.2074C11.2846 18.2044 11.138 18.193 10.9923 18.1731C11.1619 18.0535 11.3143 17.9111 11.4452 17.75L11.4573 17.7349C11.468 17.7216 11.4651 17.7245 11.4761 17.7105C11.7075 17.4138 11.6972 17.1207 11.7731 17.068C11.849 17.0153 12.1106 16.9368 12.153 16.9416C12.1953 16.9464 12.2053 16.9755 12.1824 17.0153C12.1172 17.1303 12.0623 17.2508 12.0181 17.3755C11.9864 17.486 11.9886 17.6187 11.9422 17.6678C11.8958 17.7168 11.7082 17.8454 11.6707 17.8746C11.6331 17.9037 11.5874 17.9114 11.5878 17.9501C11.5881 17.9888 11.5844 18.043 11.608 18.0427C11.7053 18.0427 11.8659 17.8513 12.0752 17.7312C12.2252 17.6445 12.2838 17.5837 12.4116 17.541C12.5045 17.5089 12.6655 17.4779 12.6835 17.4436C12.7016 17.4094 12.6677 17.4024 12.6098 17.4171C12.552 17.4319 12.4422 17.44 12.4183 17.4252C12.3943 17.4105 12.6157 17.1027 12.7182 17.0197C12.8906 16.9733 13.2086 16.6095 13.1913 16.5929C12.9562 16.7857 12.8438 16.8568 12.6342 16.9427C12.5914 16.96 12.5925 16.8321 12.5999 16.8048C12.6073 16.7776 12.7639 16.6699 12.8976 16.598C13.1246 16.4768 13.2392 16.2619 13.2705 16.2003C13.2915 16.1594 13.3073 16.1155 13.3073 16.1155C13.3073 16.1155 13.3011 16.0875 13.3224 16.1255L13.3254 16.1225ZM4.9958 1.60532L5.13508 2.06757H5.58643L5.2213 2.35324L5.36094 2.81549L4.9958 2.52981L4.63104 2.81549L4.77031 2.35324L4.40554 2.06757H4.85653L4.9958 1.60532ZM9.67513 17.6608H11.4805L11.3999 17.7577L9.53549 17.7544L9.67366 17.6593L9.67513 17.6608ZM8.46882 17.6608L6.76032 17.6567L6.83401 17.757H8.59815L8.46882 17.6619V17.6608ZM14.101 15.9419C14.1293 15.9419 14.1566 15.8914 14.1934 15.8361C14.2303 15.7808 14.3364 15.379 14.4053 15.2777C14.4742 15.1763 14.8799 14.7926 14.8637 14.6643C14.8497 14.6514 14.5604 15.0008 14.528 15.0218C14.4956 15.0429 14.4819 15.0587 14.4543 15.0237C14.5254 14.3292 15.0394 14.1232 14.9945 14.0988C14.7026 14.184 14.5398 14.3937 14.4418 14.4918C14.413 14.487 14.4606 14.383 14.4742 14.3392C14.7815 13.8902 14.7454 13.6823 14.6172 13.0328C14.6146 13.0195 14.6794 13.498 14.538 13.8887C14.5287 13.9138 14.5206 13.6963 14.217 13.5514C14.2078 13.547 14.434 13.7833 14.4945 14.0306C14.4878 14.1895 14.4182 14.2466 14.3707 14.3255C14.2727 14.4859 14.3298 14.815 14.3338 14.9942C14.3338 15.0594 14.3117 15.2235 14.2822 15.2235C14.2528 15.2235 14.2531 15.1 14.252 15.01C14.2789 14.6731 14.0833 14.1213 13.8077 13.9952C14.2056 14.3148 14.1577 15.5372 14.0022 15.9076C13.9753 15.9721 14.1002 15.9423 14.1047 15.9423L14.101 15.9419ZM9.07824 3.53466C9.17072 3.53466 9.22304 3.6692 9.22304 3.79859C9.22304 3.92797 9.14346 4.05662 9.07566 4.05662C9.00787 4.05662 8.93713 3.94603 8.93713 3.82771C8.93713 3.70938 8.98023 3.53577 9.07898 3.53577L9.07824 3.53466ZM9.02997 4.16536H9.12946C9.12946 4.16536 9.12946 4.30875 9.19762 4.38211C9.24935 4.43309 9.30941 4.47485 9.37521 4.50559L9.37227 4.55462L8.7809 4.56089V4.50559C8.8452 4.47128 8.90396 4.42741 8.95518 4.37547C9.07124 4.2166 9.03108 4.16278 9.02887 4.16536H9.02997ZM8.69542 5.04267C8.81001 5.04267 8.83027 4.83145 8.79122 4.83477C8.75216 4.83809 8.79122 4.99622 8.69726 4.99622C8.60331 4.99622 8.63057 4.85615 8.59631 4.85283C8.56204 4.84951 8.58083 5.04267 8.69542 5.04267ZM8.34539 5.0998C8.3839 5.09483 8.41901 5.07503 8.44322 5.04462C8.46742 5.01421 8.47885 4.97558 8.47509 4.93687C8.47325 4.80454 8.30228 4.80675 8.19985 4.80675C8.08932 4.80675 7.9541 4.90481 7.95078 4.98C7.94747 5.0552 8.03258 5.11602 8.09595 5.11418C8.15932 5.11234 8.07348 4.98332 8.20354 4.97816C8.3336 4.973 8.32144 5.0998 8.34539 5.0998ZM8.1538 4.90739C8.11953 4.91623 8.04805 4.95678 8.05468 4.98701C8.06132 5.01723 8.10627 5.06958 8.08711 5.08027C8.06795 5.09096 7.98321 5.05151 7.98468 5.00654C7.99496 4.95597 8.02281 4.91067 8.06327 4.87863C8.10373 4.8466 8.15417 4.8299 8.20575 4.83145C8.26544 4.83145 8.37819 4.85394 8.42166 4.90112C8.43161 4.91218 8.43345 4.93171 8.45851 4.9295C8.45748 4.95409 8.45014 4.97805 8.43725 4.99902C8.42435 5.01996 8.4063 5.03729 8.38482 5.0493C8.38113 5.0106 8.42756 4.93872 8.35718 4.92655C8.28681 4.91439 8.28349 4.95273 8.23449 4.95273C8.18548 4.95273 8.18991 4.90001 8.15564 4.90886L8.1538 4.90739ZM7.62323 5.6166C7.71534 5.6343 7.81409 5.65346 8.00642 5.67669C8.04658 5.69438 8.08269 5.7176 8.08011 5.7353C8.07348 5.76774 8.02521 5.79649 7.98394 5.82192C7.94268 5.84736 7.88004 5.92882 7.84504 5.9443C7.81003 5.95978 7.76729 5.9878 7.55359 6.10465C7.33989 6.2215 7.29199 6.25468 7.29199 6.25468C7.30448 6.26441 7.31926 6.27082 7.33492 6.27333C7.35054 6.27584 7.36657 6.27436 7.38152 6.26905C7.44342 6.25468 7.58823 6.20786 7.63281 6.17542C7.67739 6.14299 7.82551 6.00107 7.94599 5.9373C8.06648 5.87353 8.15159 5.84072 8.25586 5.85436C8.36013 5.868 8.37634 5.99849 8.32476 6.10465C8.27318 6.21081 7.82551 6.42055 7.82551 6.42055C7.82551 6.42055 7.95631 6.42055 8.01158 6.41687C8.06684 6.41318 8.29013 6.3225 8.34318 6.29412C8.39624 6.26574 8.6081 6.22556 8.65637 6.20786C8.70463 6.19017 8.70205 6.2344 8.73006 6.2709C8.75806 6.30739 8.73706 6.33762 8.69947 6.40249C8.66189 6.46737 8.56499 6.52156 8.46882 6.54994C8.37266 6.57832 8.26581 6.66052 8.13722 6.69517C8.00863 6.72982 7.91615 6.73756 7.79493 6.76632C7.67371 6.79507 7.28241 6.8887 7.15824 6.89976C7.03408 6.91081 6.96223 6.94288 6.84838 6.95394C6.73452 6.965 6.01568 6.94288 5.95046 6.93551C5.78639 6.89983 5.62442 6.8553 5.46521 6.80207C5.33997 6.76488 5.21116 6.74114 5.08092 6.7313C5.0304 6.74188 4.98294 6.76366 4.94201 6.79507C4.88265 6.83466 4.81769 6.86511 4.74931 6.88538C4.68409 6.90676 4.67046 6.87653 4.65314 6.82382C4.63583 6.77111 4.63546 6.7501 4.67341 6.70844C4.71136 6.66679 4.80789 6.63656 4.85763 6.62551C4.90737 6.61445 5.13655 6.59675 5.27435 6.57869C5.41215 6.56063 5.43242 6.45963 5.43242 6.45963C5.43242 6.45963 5.64575 6.45262 5.8145 6.43825C5.98325 6.42387 6.65089 6.25394 6.98802 6.0453C7.32515 5.83667 7.57312 5.63725 7.59559 5.62582C7.60551 5.62117 7.61604 5.61793 7.62691 5.61623L7.62323 5.6166Z" fill="#163C94"/>
<path fill-rule="evenodd" clip-rule="evenodd" d="M8.31227 10.419C7.90698 10.5126 7.76218 10.8588 8.36459 10.9144C8.61809 10.9376 8.89885 10.7939 8.90916 10.6048C8.90916 10.2889 8.55213 9.92542 7.90477 9.92542C7.2574 9.92542 6.38196 10.228 6.38196 11.5046C6.38196 12.7811 7.37678 13.2739 7.73675 13.2739C8.68551 13.2739 9.2474 12.3701 8.29311 12.2551C8.29311 12.2551 7.74817 12.2278 7.74817 12.5057C7.74817 12.7837 8.18479 12.7803 8.18479 12.7803C8.18479 12.7803 8.18774 13.0531 7.89261 13.0531C7.59748 13.0531 7.22682 12.7461 7.22682 11.7442C7.22682 11.7442 6.9748 11.7755 6.9748 11.6476C6.9748 11.5197 7.26403 11.5208 7.35172 11.5208C7.60632 11.5208 7.89998 11.6841 7.95782 11.6841C7.98196 11.6822 8.00473 11.672 8.02215 11.6552C8.03958 11.6384 8.05056 11.616 8.05325 11.5919C8.0562 11.5551 8.01935 11.5311 8.01935 11.4813C8.01935 11.4316 8.36754 11.363 8.36754 11.2207C8.34035 11.2138 8.31183 11.2138 8.28464 11.2207C8.25074 11.2329 7.65827 11.3579 7.31635 11.3579C6.97443 11.3579 6.95306 11.2734 6.95564 11.2104C6.96485 10.9524 7.28503 10.6638 7.29166 10.6332C7.29387 10.6228 7.2854 10.618 7.23308 10.618C7.18076 10.618 7.18997 10.6265 7.10191 10.6265C7.01385 10.6265 7.02012 10.5948 7.02012 10.5816C7.02012 10.5683 7.25003 10.2052 7.84655 10.2052C7.95709 10.2052 8.45892 10.3069 8.31227 10.4183V10.419Z" fill="#163C94"/>
<path fill-rule="evenodd" clip-rule="evenodd" d="M9.72973 10.398C9.72973 10.398 10.068 10.5292 10.068 10.6878C10.068 10.8463 9.82184 10.9557 9.6004 10.9557C8.85318 10.9557 9.28464 9.92693 10.2157 9.92693C10.7142 9.92693 10.8089 10.1452 10.8089 10.2627C10.8089 10.3803 10.4803 10.9974 10.4803 11.2263C10.4803 11.4552 10.5971 11.526 10.775 11.526C10.953 11.526 11.1505 11.4958 11.1505 11.1489C11.2223 10.7803 10.9644 9.8956 11.6457 9.91993C11.9224 9.91993 11.9286 10.0073 11.9286 10.1042C11.9286 10.2012 11.7076 10.2255 11.6339 10.3298C11.5602 10.4341 11.8111 11.7449 11.7912 11.9149C11.7485 12.2887 11.5193 13.3016 10.4243 13.2714C10.474 13.2714 9.69694 13.2636 9.58824 12.7317C9.58824 12.1998 10.1848 12.2835 10.271 12.2835C10.3572 12.2835 10.5923 12.3384 10.5923 12.4932C10.645 12.7192 10.3141 12.8043 10.2463 12.8029C10.2463 12.815 10.3137 12.9577 10.4372 12.9769C11.2028 13.0948 11.3657 12.083 11.3973 11.8647C11.3973 11.8647 10.9003 12.1136 10.6276 12.0321C10.505 12.0321 10.2032 11.8872 10.2032 11.7258V11.5068L9.91432 11.5271C9.97747 11.2968 10.0608 11.0726 10.1634 10.8569C10.3204 10.5388 10.4681 10.1957 10.1358 10.1957C9.80342 10.1957 9.73047 10.3958 9.73047 10.3958L9.72973 10.398Z" fill="#163C94"/>
<path fill-rule="evenodd" clip-rule="evenodd" d="M9.39537 15.8163H9.37989H9.36442H9.34931H9.33457H9.3202H9.30583H9.29146L9.27709 15.8145L9.26346 15.8126H9.2502L9.22698 15.8089L9.20598 15.806L9.18682 15.803L9.16914 15.8005L9.15293 15.7979L9.13782 15.796H9.12455H9.11203H9.10097H9.09139H9.08255H9.07481H9.0236H9.01512H9.00554H8.99523H8.98307H8.9698L8.95543 15.7979L8.93959 15.8001L8.92227 15.8023L8.90312 15.8049L8.88285 15.8078L8.86074 15.8111L8.83606 15.8145H8.8239L8.81063 15.8163H8.79737H8.78337H8.76974H8.75573H8.74173H8.72736H8.71226H8.69752H8.68204H8.66657H8.65073H8.63451H8.6183H8.60098H8.58477H8.56709H8.5494H8.53135H8.4945H8.47534H8.28559L7.56785 15.8244L7.57853 15.5844L7.58443 15.545L7.59474 15.5056L7.61096 15.4665L7.6338 15.4278L7.66291 15.3909L7.69975 15.3581L7.73991 15.3301L7.78266 15.3076L7.82613 15.2903L7.8685 15.2778L7.90867 15.2693L7.94551 15.2634L7.98236 15.2593L8.01662 15.2571H8.04941H8.14005H8.16805H8.19458H8.29001H8.31028H8.3287L8.34565 15.2553H8.35154V13.9828V13.9751V13.9681H8.3497H8.33607H8.33275L8.3077 13.9843L8.27675 14.0057L8.2399 14.0318L8.20306 14.0613L8.16179 14.0934L8.11868 14.1277L8.07336 14.1645L8.02694 14.2014L7.97867 14.2383L7.92967 14.2751L7.87993 14.312L7.82908 14.3488L7.7775 14.3831L7.72444 14.4156L7.66954 14.4462L7.61206 14.4742L7.54979 14.4989L7.48016 14.5191L7.39983 14.5324H7.30735L7.20861 14.5114L7.12018 14.4675L7.05349 14.4089L7.00928 14.3452L6.9809 14.2792L6.96359 14.211L6.95401 14.1373L6.95069 14.0565V14.0385L6.95327 14.0222L6.95622 14.009L6.95954 13.9972L6.96322 13.9861L6.9669 13.9762L6.97059 13.9662L6.97501 13.9566L6.97906 13.947L6.98312 13.9378L6.98754 13.929L6.99196 13.9198L6.99675 13.9106L7.00191 13.901L7.0067 13.8918L7.01149 13.8833L7.0148 13.877L7.01701 13.873L7.00485 13.8656L6.98975 13.8575L6.9728 13.849L6.9529 13.8398L6.44739 13.6186L6.98238 13.4675L6.99859 13.4627L7.01407 13.4583L7.02917 13.4542L7.04428 13.4498L7.05939 13.4457L7.07449 13.4417L7.08997 13.4376L7.10581 13.4339L7.12202 13.4302L7.13897 13.4269L7.15629 13.4236L7.17434 13.4207L7.1935 13.4181L7.2134 13.4162H7.23366H7.2543H7.2753H7.2963H7.31693L7.3372 13.4181L7.35746 13.4207L7.37736 13.424L7.39652 13.4277L7.41531 13.4317L7.43373 13.4361L7.45215 13.4409L7.47021 13.4457L7.48826 13.4513L7.50668 13.4568L7.52548 13.4627L7.53911 13.4671L7.56932 13.476L7.59511 13.4819L7.62238 13.4863L7.65149 13.4892H7.6828H7.71597H7.75281L7.78966 13.4866L7.82945 13.483L7.87108 13.4778L7.91493 13.4715L7.96025 13.4642L8.00741 13.4561L8.05605 13.4472L8.10616 13.4376L8.15774 13.428L8.21116 13.4181L8.26569 13.4085L8.3217 13.3989L8.37881 13.3901L8.43776 13.382L8.49782 13.375L8.55935 13.3691L8.62236 13.365L8.68683 13.3628H8.75205L8.81911 13.3654L8.8869 13.3709L8.95543 13.3794L9.02507 13.3915L9.0715 13.4019L9.11608 13.3919L9.18461 13.3797L9.25277 13.3713L9.31983 13.3657L9.38579 13.3632H9.45063L9.51401 13.3657L9.57591 13.3698L9.6367 13.3757L9.69013 13.3809L9.7476 13.3893L9.80398 13.3982L9.85888 13.4078L9.91267 13.4173L9.96462 13.4273L10.0151 13.4373L10.0645 13.4465L10.112 13.4553L10.1577 13.4634L10.2019 13.4708L10.2443 13.4767L10.2844 13.4819L10.3213 13.4855L10.3581 13.4878H10.3924H10.427L10.4565 13.4859L10.4838 13.4826L10.5096 13.4785L10.5339 13.4726L10.5637 13.4634L10.5954 13.4527L10.6323 13.4413L10.6691 13.431L10.7059 13.4225L10.7457 13.4155L10.787 13.4107H10.8294H10.8714L10.9112 13.4144L10.948 13.4203L10.9823 13.4277L11.0143 13.4354L11.0446 13.4435L11.074 13.4524L11.1039 13.4612L11.6374 13.6208L11.144 13.8376L11.1245 13.8468L11.1072 13.8556L11.0925 13.8637L11.0799 13.8711L11.0836 13.8777L11.0943 13.8954L11.1053 13.915L11.1157 13.9349L11.1249 13.9548L11.133 13.9758L11.1404 13.9987L11.1459 14.0248L11.1481 14.0525L11.1448 14.1317L11.1348 14.2021L11.116 14.2689L11.0851 14.3341L11.0368 14.3968L10.9657 14.4528L10.8754 14.4919L10.7796 14.5088H10.6912L10.6138 14.4959L10.5457 14.4764L10.4841 14.4524L10.4267 14.4255L10.3718 14.396L10.3183 14.3647L10.266 14.3315L10.2144 14.2972L10.164 14.2604L10.1146 14.2235L10.0663 14.1866L10.0195 14.1498L9.9742 14.1155L9.93072 14.0823L9.88946 14.0514L9.85261 14.023L9.81798 13.9979L9.7874 13.9769L9.76382 13.9618H9.76161H9.74871V13.9706V13.9758V13.9813V15.263H9.76566H9.78482H9.80582H9.87951H9.90678H9.93515H9.96425H9.99484H10.0265H10.0932H10.1301L10.1669 15.266L10.2056 15.2704L10.2465 15.2778L10.2896 15.2884L10.3342 15.3036L10.3788 15.3238L10.4222 15.35L10.4617 15.3821L10.4952 15.4189L10.5217 15.4584L10.5405 15.4993L10.553 15.5406L10.5597 15.5819L10.5711 15.8178L9.81466 15.8251H9.6017H9.58328H9.54643H9.52948H9.5129H9.49669H9.48011H9.46353H9.44732H9.43111H9.41526H9.39979L9.39537 15.8163ZM7.19682 14.0573C7.19873 14.0444 7.20271 14.032 7.20861 14.0204C7.21635 14.0027 7.22629 13.9835 7.23772 13.9625C7.24892 13.943 7.25864 13.9227 7.26682 13.9017C7.27309 13.8878 7.2771 13.873 7.27861 13.8578C7.27861 13.7897 7.20087 13.7229 7.04538 13.6566C7.23293 13.6039 7.25798 13.5891 7.44147 13.6496C7.90645 13.8029 8.48492 13.4284 9.06597 13.6101C9.63596 13.4299 10.2034 13.8055 10.6569 13.647C10.8356 13.5851 10.8684 13.6024 11.0471 13.6555C10.8916 13.7218 10.8143 13.7885 10.8143 13.8567C10.8186 13.895 10.8326 13.9315 10.8548 13.9629C10.8756 13.9909 10.8895 14.0233 10.8957 14.0576C10.8957 14.7713 10.0022 13.769 9.81245 13.769C9.66876 13.769 9.57937 13.7911 9.54422 13.8354C9.50844 13.8829 9.48998 13.9413 9.4919 14.0009V15.2837C9.48954 15.3169 9.49868 15.35 9.5178 15.3773C9.53692 15.4046 9.56485 15.4245 9.59691 15.4337C9.87214 15.5303 10.3047 15.3412 10.3047 15.6243L9.80656 15.629C9.68607 15.629 9.58549 15.629 9.50369 15.6246C9.43442 15.623 9.36526 15.6173 9.29662 15.6077C9.04828 15.5708 9.05307 15.5708 8.79295 15.6077C8.62261 15.624 8.45154 15.6311 8.28043 15.629L7.8265 15.6338C7.8265 15.35 8.21448 15.5288 8.49303 15.4337C8.52538 15.4246 8.55364 15.4049 8.5732 15.3776C8.59277 15.3503 8.60246 15.3172 8.60062 15.2837V14.0009C8.60308 13.9694 8.59918 13.9378 8.58919 13.9079C8.57917 13.878 8.56326 13.8505 8.5424 13.8269C8.50386 13.7883 8.41654 13.769 8.28043 13.769C8.06784 13.769 7.19682 14.8188 7.19682 14.0576V14.0573Z" fill="#163C94"/>
<path fill-rule="evenodd" clip-rule="evenodd" d="M5.68665 7.88074L12.5608 7.88406L12.556 9.21771L5.69107 9.21402L5.68665 7.88074Z" fill="#ED1C24"/>
<path fill-rule="evenodd" clip-rule="evenodd" d="M11.517 8.15089H11.5932C11.5542 8.19992 11.5196 8.34368 11.5026 8.49149C11.8143 8.47564 12.1128 8.46827 12.224 8.71266C12.2406 8.75045 12.2441 8.79265 12.2341 8.83268C12.2241 8.87272 12.2011 8.90829 12.1688 8.93383C12.1024 8.98138 12.0089 9.00534 11.8873 9.00534C11.767 9.00442 11.648 8.98079 11.5365 8.93568C11.4842 8.95978 11.4278 8.97368 11.3703 8.97659C11.2956 8.97928 11.2214 8.96196 11.1555 8.92646C11.1029 8.89052 11.0664 8.83552 11.0535 8.77312C11.0458 8.72877 11.0531 8.68314 11.0741 8.64336C11.1884 8.70758 11.3065 8.76471 11.4278 8.8144C11.402 8.74916 11.4101 8.62714 11.4234 8.54089C11.3011 8.54089 11.1843 8.54679 11.0874 8.5501C10.8641 8.70713 10.6194 8.86748 10.5269 8.88554C10.6857 8.8767 10.874 8.80482 11.0089 8.90361C10.9965 8.92819 10.9827 8.95208 10.9676 8.97512C10.9418 8.86453 10.6065 8.9283 10.5152 8.93826L10.3272 8.96074L10.374 8.90434C10.4595 8.77754 10.4676 8.61424 10.5048 8.48707C10.5181 8.46864 10.1913 8.77422 10.083 8.94968H10.0093C10.0358 8.87006 10.0424 8.68354 10.0037 8.59323C9.9669 8.63894 9.92158 8.69239 9.87994 8.73662C9.77884 8.85178 9.63864 8.92532 9.48644 8.94305C9.39749 8.95952 9.3056 8.94766 9.22373 8.90913C8.98571 8.98286 8.63753 8.99318 8.37372 8.88702C8.34501 8.87541 8.3176 8.86081 8.29192 8.84352C8.00895 9.05879 7.34868 8.96111 7.10772 8.83025C7.06173 8.85613 7.01398 8.87865 6.96476 8.89771C6.83716 8.93877 6.70378 8.95893 6.56978 8.95742C6.39786 8.95742 6.25932 8.92362 6.15416 8.85605C6.04905 8.78849 5.99057 8.70393 5.97878 8.60245C5.9734 8.56293 5.97841 8.52268 5.99334 8.48571C6.00826 8.44873 6.03258 8.41629 6.06389 8.3916C6.15822 8.32082 6.26986 8.30239 6.40361 8.32304C6.48293 8.33682 6.55998 8.36163 6.63241 8.39676C6.68481 8.37597 6.74074 8.36557 6.79711 8.36616C6.86321 8.36336 6.92828 8.38341 6.98134 8.42293C7.00481 8.44014 7.02426 8.46222 7.03837 8.4877C7.05252 8.51313 7.06096 8.54137 7.06313 8.57038C7.06284 8.63651 7.0407 8.70065 7.00013 8.75284C6.87452 8.63665 6.73418 8.5375 6.58267 8.45795C6.4703 8.54015 6.4644 8.6511 6.51414 8.76021C6.49019 8.74967 6.46923 8.73338 6.45313 8.7127C6.43706 8.69206 6.42638 8.66773 6.42203 8.64189C6.4154 8.56817 6.46403 8.50587 6.55062 8.44026C6.50861 8.41666 6.46458 8.3968 6.41908 8.38091C6.37041 8.36631 6.31905 8.36307 6.26894 8.37136C6.21879 8.37965 6.17122 8.39934 6.12985 8.42883C5.95446 8.55821 6.11621 8.82472 6.37745 8.87301C6.46219 8.88886 6.55062 8.91245 6.64089 8.9025C6.79284 8.89078 6.93996 8.84367 7.0705 8.76501C7.06896 8.75597 7.06796 8.74687 7.06756 8.73773C7.06498 8.67138 7.14125 8.62714 7.23815 8.61203C7.32238 8.49396 7.38479 8.36174 7.42237 8.22167L6.90875 8.22425H6.85201L6.78569 8.22646C6.76613 8.22683 6.74689 8.23147 6.72932 8.2401C6.71484 8.24964 6.70341 8.26325 6.69652 8.27917L6.69358 8.28654L6.663 8.28175L6.66926 8.26885C6.67884 8.24858 6.68694 8.23199 6.69431 8.21393L6.71642 8.16269L6.72158 8.15126H7.5646L7.55649 8.18001C7.51876 8.33177 7.4548 8.47572 7.36747 8.6054C7.39338 8.60683 7.41909 8.61015 7.44448 8.61535C7.5314 8.63146 7.61629 8.65707 7.69761 8.69165C7.74738 8.68708 7.79617 8.67462 7.84204 8.65479C7.85103 8.66275 7.85939 8.67138 7.86709 8.68059C7.81065 8.71108 7.75217 8.73769 7.69208 8.76021C7.58626 8.68465 7.45734 8.64852 7.32768 8.65811C7.303 8.6876 7.27617 8.71521 7.24736 8.74068C7.21895 8.7656 7.18892 8.78863 7.15746 8.80961C7.6195 8.98802 7.99679 8.9471 8.21749 8.78491C8.16952 8.74046 8.13732 8.68159 8.12575 8.61719C8.12575 8.60503 8.12354 8.59286 8.1228 8.58033C7.93857 8.54863 7.65376 8.55526 7.5576 8.55932L7.68324 8.44173C7.83836 8.448 7.94115 8.46864 8.09811 8.4292C8.1239 8.42293 8.14712 8.41666 8.16922 8.4104L8.17365 8.40524C8.23363 8.34165 8.30632 8.29145 8.38698 8.25779C8.27129 8.19218 7.78382 8.20139 7.66813 8.33151L7.63534 8.26369C7.63534 8.26369 7.69171 8.21687 7.8332 8.18628C7.93482 8.16143 8.03927 8.15026 8.1438 8.1531C8.22597 8.1552 8.3075 8.16822 8.38624 8.19181C8.40813 8.20065 8.42659 8.21628 8.43893 8.23641C8.73111 8.11808 9.13015 8.10813 9.4098 8.25374L9.36337 8.34589C9.45578 8.3718 9.53533 8.43104 9.58666 8.51214C9.71377 8.52467 9.76241 8.58586 9.80773 8.62272C9.81399 8.62714 9.79152 8.64668 9.78046 8.65626C9.78267 8.65626 9.67877 8.56595 9.59403 8.56522C9.58555 8.65221 9.51333 8.73515 9.43891 8.80482C9.4042 8.83534 9.36492 8.86022 9.32248 8.87854C9.43334 8.90335 9.54944 8.88562 9.64782 8.82878C9.78636 8.751 9.877 8.65479 9.97758 8.51951C9.7392 8.2589 10.1806 8.01708 10.2252 8.23199C10.2462 8.33336 10.1283 8.42735 10.0664 8.51066C10.1088 8.57406 10.1158 8.67138 10.1176 8.74141C10.2799 8.56061 10.4574 8.39414 10.6482 8.24378C10.7415 8.18672 10.8494 8.15812 10.9588 8.16158C11.0324 8.16586 11.1062 8.16586 11.1798 8.16158L11.2476 8.13025C11.2476 8.13025 11.2797 8.1343 11.279 8.13283C11.2782 8.13136 11.1662 8.20655 11.1552 8.21761C11.15 8.21761 10.9919 8.21761 10.9341 8.22093C10.8546 8.22554 10.7776 8.24972 10.7097 8.29133C10.5686 8.39823 10.5594 8.59065 10.5255 8.71414C10.5118 8.7726 10.4876 8.82808 10.454 8.8778C10.5465 8.83467 10.6168 8.7698 10.7093 8.7064C10.783 8.65553 10.8567 8.6054 10.9304 8.556C10.7521 8.52762 10.8036 8.42072 10.8726 8.38939C10.9108 8.37534 10.9512 8.36764 10.9919 8.36653C10.9941 8.36653 10.7749 8.44947 11.0203 8.48891H11.0288C11.1924 8.37833 11.3545 8.26774 11.5166 8.15163L11.517 8.15089ZM8.60621 8.38975C8.57802 8.3704 8.55153 8.34869 8.52699 8.32488C8.52073 8.31935 8.48204 8.35732 8.47467 8.35805C8.49998 8.38146 8.52736 8.40258 8.55647 8.42109L8.55868 8.41924C8.5292 8.43952 8.49972 8.46164 8.47062 8.48596C8.47062 8.48596 8.44888 8.58918 8.45698 8.56743C8.50101 8.52367 8.55053 8.48589 8.60436 8.455C8.7838 8.549 9.0793 8.65332 9.32727 8.39049C9.30332 8.38496 9.43449 8.41777 9.49491 8.50366C9.20015 8.52799 9.0874 8.72483 9.16036 8.84426C9.08313 8.86615 9.00388 8.88024 8.92381 8.88628C8.6659 8.90471 8.47172 8.86638 8.3494 8.76906C8.36439 8.73607 8.36951 8.69947 8.36414 8.66364C8.3564 8.60576 8.31292 8.563 8.21675 8.53757C8.2162 8.50163 8.22578 8.46624 8.24439 8.43546C8.35124 8.40339 8.43525 8.35584 8.44998 8.28802C8.45035 8.2847 8.45035 8.28138 8.44998 8.27806C8.70495 8.17153 9.08188 8.15384 9.33943 8.26737L9.31363 8.32082C9.12941 8.26627 8.92308 8.21024 8.604 8.38902L8.60621 8.38975ZM8.65779 8.4233C8.82986 8.50145 9.05167 8.58586 9.29116 8.36948C9.18895 8.32794 9.07834 8.31117 8.96839 8.32053C8.85845 8.32985 8.7523 8.36509 8.65853 8.4233H8.65779ZM11.4949 8.54126C11.4827 8.66437 11.4823 8.78307 11.4997 8.84426L11.5818 8.88112C11.6924 8.80445 11.6835 8.70013 11.6187 8.59839C11.643 8.60576 11.6651 8.61903 11.6831 8.63695C11.7011 8.65486 11.7144 8.67694 11.7218 8.70124C11.7384 8.7709 11.7045 8.83615 11.6201 8.89808C11.738 8.94895 11.7992 8.96922 11.8943 8.96627C12.1758 8.95816 12.2469 8.70529 11.9952 8.59765C11.8972 8.55563 11.7005 8.5442 11.4967 8.54384L11.4949 8.54126ZM11.4293 8.49297C11.4433 8.41143 11.4644 8.33126 11.4923 8.25337C11.4403 8.29023 11.3081 8.39123 11.1559 8.49997C11.2451 8.50329 11.3353 8.49739 11.4293 8.49297ZM7.66371 8.51214C7.73371 8.50771 7.7864 8.51582 7.84425 8.51214C7.93666 8.50779 8.02925 8.51014 8.12133 8.51914C8.1232 8.49912 8.12766 8.4794 8.13459 8.46053C8.01134 8.48349 7.88585 8.4919 7.76061 8.48559C7.75766 8.48559 7.68692 8.49112 7.68987 8.48043C7.68987 8.48043 7.6965 8.48338 7.66371 8.51066V8.51214ZM9.50007 8.55195C9.48367 8.54859 9.46676 8.54859 9.45033 8.55195C9.33648 8.56669 9.13162 8.69607 9.22668 8.81624C9.37627 8.76095 9.48717 8.6688 9.50007 8.55195ZM7.0005 8.63562C7.06277 8.48375 6.89807 8.34331 6.67184 8.41187C6.7917 8.47008 6.90242 8.54546 7.0005 8.63562ZM8.28529 8.70197C8.28978 8.68726 8.29041 8.67167 8.28713 8.65663C8.28271 8.63636 8.26281 8.61977 8.23186 8.60687C8.24472 8.64111 8.26274 8.67318 8.28529 8.70197ZM8.31624 8.35732C8.34973 8.34674 8.37983 8.32753 8.40356 8.30166C8.37265 8.31717 8.34339 8.33583 8.31624 8.35732ZM10.0351 8.46311C9.80036 8.2976 10.2016 8.03257 10.1769 8.27622C10.174 8.30645 10.0597 8.41261 10.0351 8.46311ZM11.1003 8.71598C11.0909 8.73493 11.0879 8.75638 11.0918 8.77717C11.1253 8.91319 11.3302 8.98212 11.4908 8.9213C11.3528 8.86896 11.2217 8.79999 11.1003 8.71598Z" fill="#FFF200"/>
</g>
</svg>
