<svg width="16" height="17" viewBox="0 0 16 17" fill="none" xmlns="http://www.w3.org/2000/svg">
<path fill-rule="evenodd" clip-rule="evenodd" d="M11.3489 10.947L16.0001 15.5981L15.095 16.5032L10.4438 11.8521C9.34052 12.7549 7.93022 13.2966 6.39341 13.2966C2.85879 13.2966 -0.0065918 10.4312 -0.0065918 6.89658C-0.0065918 3.36196 2.85879 0.496582 6.39341 0.496582C9.92803 0.496582 12.7934 3.36196 12.7934 6.89658C12.7934 8.43339 12.2517 9.84369 11.3489 10.947ZM6.39341 12.0166C9.22111 12.0166 11.5134 9.72428 11.5134 6.89658C11.5134 4.06888 9.22111 1.77658 6.39341 1.77658C3.56571 1.77658 1.27341 4.06888 1.27341 6.89658C1.27341 9.72428 3.56571 12.0166 6.39341 12.0166Z" fill="#EEEEEE"/>
</svg>
